<svg xmlns="http://www.w3.org/2000/svg" width="620" height="318" fill="none" viewBox="0 0 620 318"><path fill="#00d4fb" d="M335.848 2.574c7.084-2.29 14.769-3.43 22.113-1.823 4.053.892 7.937 3.304 9.812 7.158 1.269 2.19 1.758 5.079 4.031 6.5 3.408 1.8 7.82.843 10.864 3.485 2.165 1.827 2.707 5.668 5.95 5.997 6.3.507 12.509-2.347 18.805-1.057 2.958.568 5.257 2.845 6.699 5.426 2.23 3.953 3.615 8.305 5.192 12.548 1.338 3.893 2.966 7.82 2.97 12.008.087 2.156-.143 4.797 1.806 6.248 2.243 1.087 5.456.507 6.919 2.957 2.1 3.668 1.797 8.414 4.698 11.679 1.966 2.165 3.715 4.611 4.313 7.555 1.745 7.28 3.455 14.861 7.963 20.988 2.983 3.992 7.564 6.378 10.47 10.466 4.863 6.214 5.213 14.536 8.664 21.451 2.572-2.126 5.14-5.079 8.799-4.763 5.681.645 10.154 5.066 13.163 9.699 4.612 7.257 6.915 16.008 6.262 24.625.004 1.81-.451 3.915.775 5.439 1.611.225 3.269-.152 4.875.229 3.547 1.269 7.47 1.395 10.73 3.464 6.274 3.703 11.873 9.76 12.917 17.286 4.139 4.538 6.841 10.392 7.521 16.541.221 2.126-.247 4.347.624 6.378 1.255 3.477.822 7.227 1.061 10.855 8.867-8.612 12.132-22.598 8.374-34.415-1.07-3.914-3.269-7.348-4.555-11.176-3.122-8.153-8.431-15.151-12.895-22.551-2.85-6.75-8.02-12.055-12.999-17.242-3.018-3.334-6.738-6.045-9.176-9.886 3.278.563 5.976 2.672 8.661 4.521 8.742 6.387 16.454 14.146 23.417 22.451 4.685 5.72 9.123 11.731 12.34 18.433 2.066 4.205 2.732 8.894 3.863 13.402 1.498 6.283 2.593 12.657 3.334 19.069 1.121 1.386 3.109 2.066 3.901 3.846 3.962 6.949 5.174 16.151 1.204 23.377 1.883.351 3.871.871 5.772.278 2.853-.957 4.139-4.439 7.192-5.01 3.356-.49 6.534 1.061 9.639 2.126 3.81 1.489 8.274 1.875 11.254 5.01 5.308 5.43 8.118 13.025 8.867 20.533.217 3.555-.039 8.002-3.277 10.188-2.113 1.451-2.867 4.261-5.188 5.482-2.732 1.503-4.945 3.754-7.603 5.378-6.482 4.109-13.978 6.322-21.508 7.405-5.269.792-10.699.58-15.835 2.204-7.123 2.156-14.614 1.874-21.944 2.255-3.521.884-7.024 1.906-10.367 3.33-8.495 1.087-16.921 2.685-25.404 3.858-8.738.217-17.428 1.901-26.179 1.338 1.251-.896 2.559-1.788 4.065-2.204 5.149-1.437 10.557-1.822 15.589-3.702 3.589-1.433 7.577-1.723 10.903-3.841.363-.822.749-1.636 1.16-2.433-2.542-.061-5.083-.489-7.357-1.663-2.437-1.307-5.074.39-7.075 1.762-1.836 1.135-2.827 3.109-3.615 5.062-5.69 2.014-11.549 3.512-17.412 4.902-3.884 1.022-7.924.615-11.864 1.134-8.236 1.044-16.433 2.417-24.681 3.378-9.951 1.299-20.005.922-30.008 1.399-3.135.402-5.949-2.031-9.058-1.226-3.46.706-6.98 1.273-10.301 2.529 5.127.809 10.314.441 15.454.034 5.2.286 10.366 1.061 15.562 1.451 4.984.628 10.145.844 14.852 2.806-5.369.892-10.829 1.004-16.199 1.914-6.638 1.156-13.401.641-20.074 1.489-17.515 1.94-35.134 3.512-52.775 2.888-7.911-.298-15.839-.463-23.737-.995 4.594-.866 9.284-.905 13.939-1.135 20.572-.628 41.057-2.797 61.595-3.893-4.43-.653-8.916-.394-13.372-.437-10.002-.048-20.017.212-29.994-.602-8.638-.701-17.32-.268-25.928.615-3.72.351-7.405 1.07-11.137 1.247-17.19.476-34.394.065-51.58.052-2.039-.013-4.092-.212-6.031-.853 3.611-1.611 7.577-2 11.457-2.429 6.049-.546 12.12-.948 18.134-1.849 1.771-.217 3.382-1.018 4.997-1.736-2.97-.074-6.04.125-8.881-.923-2.607-.831-4.997-2.507-7.807-2.567-2.65-.165-5.317-.126-7.967-.325-2.404-.16-4.685-1.074-7.084-1.256-3.495-.268-7.024-.008-10.505-.528-2.451-.325-4.594-1.853-7.097-1.914-4.062-.338-8.197 1.13-12.18-.139-3.928-1.134-8.041-.77-12.068-.857 3.377 1.671 6.4 4.196 10.21 4.798 3.429 1.03 7.69 1.411 9.86 4.659-3.447-.126-6.751-1.173-10.115-1.849-6.236-1.364-12.601-2.07-18.983-2.321-5.837-.325-11.743.139-17.524-.961-6.69-1.377-13.337-3.313-20.208-3.499-9.795-.463-19.538-1.624-29.302-2.442-6.3-.546-12.635-.355-18.935-.879 5.005 1.966 10.496 2.156 15.41 4.382 1.494.606 2.88 1.476 4.439 1.918 2.979.68 6.287.087 9.024 1.671 1.303.745 1.974 2.642 3.637 2.633 3.706.139 7.43-.199 11.137.174 5.417.679 10.868-.065 16.311.173 8.465.324 17.104 1.143 25.101 4.157-8.803.285-17.614.047-26.417.125-10.237.1-20.46-.532-30.657-1.394-2.295-.269-4.724.277-6.889-.741-3.269-1.424-6.837-1.84-10.206-2.918-2.568-1.208-4.915-3.014-7.786-3.468-1.987.255-3.598 2.039-5.702 1.753-5.049-.268-10.02-1.537-15.1-1.515-2.398-.2-3.948 2.515-6.416 2.03-5.577-.45-11.111-1.84-16.312-3.918.269-.948.827-1.853.797-2.858-.762-1.892-2.676-2.91-4.373-3.802-3.772-1.723-7.86-2.901-12.007-2.983-4.205-.026-8.25-1.685-12.48-1.213-3.204-.303-6.062-2.208-8.664-4.009-4.365.706-8.764 1.377-13.064 2.416-2.62.81-5.347 1.888-6.984 4.248 5.304 3.178 11.747 4.256 16.454 8.474l-.104 2.225c3.577 3.317 8.496 4.148 13.064 5.188 10.652 2.784 21.75 2.113 32.627 3.074 11.942 1.087 23.993.771 35.883 2.42 3.269.304 6.378 2.105 9.717 1.421 9.656-1.325 19.684-3.148 29.271-.516 14.393-2.481 29.44-3.719 43.694.269 6.569 1.953 13.449 1.438 20.2 1.42 15.216-.593 30.405.892 45.591 1.598 12.626.654 25.244 1.65 37.775 3.347-6.079-.151-12.158-.779-18.246-.39-3.59.035-7.162.879-10.743.425-7.587-1.169-15.324-1.602-22.958-.684-3.153.268-6.062 2.243-9.293 1.537-13.592-1.914-27.352-1.546-41.027-.879-14.882-2.295-30.011-1.308-44.954-.13-5.651.325-11.297-.364-16.957-.338-9.565.087-19.126-.554-28.682-.286-18.827 2.555-37.559-1.827-56.118-4.507-5.598-.97-11.349-1.689-16.588-4.04-1.923-.797-3.356-2.347-4.62-3.967-1.152-1.55-3.049-2.156-4.815-2.671-6.257-1.736-12.73-2.763-18.767-5.266-1.81-.84-3.875-1.788-4.732-3.741-.58-2.026.965-3.745 2.308-5.01 3.083-2.745 6.746-4.698 10.418-6.486 3.126-1.399 6.482-3.009 9.99-2.269-1.668 1.256-3.547 2.156-5.357 3.161a47.9 47.9 0 0 1 14.718-4.122c-2.378-1.009-5.404-.992-7.084-3.239-2.659-3.49-3.564-7.989-3.988-12.284-.286-2.382.143-4.759.913-6.993.45-.832-.125-1.642-.372-2.408-2.732-6.525-3.888-14.185-1.33-20.953 1.707-4.651 6.089-8.63 11.254-8.084.26-2.157.672-4.322.594-6.491-.61-1.918-1.226-3.88-1.165-5.919.026-6.98 1.16-13.882 1.927-20.797.428-4.283 1.55-8.526 3.676-12.272 3.715-6.703 9.037-12.418 15.077-17.021 2.17-1.611 4.452-3.226 7.154-3.72-3.123 5.344-8.154 9.297-11.168 14.705-.892 5.694-4.018 10.63-5.85 16.013-1.043 3.109-2.364 6.412-1.688 9.738.26 1.321 1.688 1.689 2.671 2.308-.558 3.226-.77 6.789.992 9.703 1.095 2.139 3.148 3.452 5.135 4.638-.411-9.976 2.581-20.693 9.942-27.66 1.949-2.144 4.863-2.105 7.474-2.447 4.14-3.893 7.149-9.249 12.505-11.674 3.585-1.866 7.872-1.576 11.47.113-1.485-5.564-2.282-11.639-.467-17.229.441-1.728 1.81-2.897 3.2-3.867-.624-9.396 3.057-18.862 9.599-25.5 1.472-1.411 3.148-2.823 5.205-3.178 1.355-.325 2.425.771 3.546 1.338 2.798-4.308 5.361-8.855 8.985-12.523 9.461-8.781 19.182-17.393 30.098-24.3 4.079-2.403 8.197-5.365 13.06-5.672-1.282 3.074-4.322 4.745-6.521 7.058-3.577 3.1-5.616 7.47-8.414 11.215-6.482 9.041-12.804 18.277-17.77 28.279-1.52 3.187-3.139 6.56-2.828 10.202.247 3.871-1.121 7.56-2.013 11.271-3.52 13.821-5.391 28.067-6.054 42.317.776-.567 1.546-1.13 2.321-1.675 2.824 4.802 2.469 11.288 7.019 15.077 3.335-8.348 9.578-15.909 17.879-19.464-1.689-4.256-1.043-8.997.559-13.167 1.706-4.703 4.555-8.834 7.179-13.038 1.585-2.377 1.264-5.404 2.477-7.924 1.87-4.053 5.153-7.171 8.699-9.721 2.169-2.78 4.417-5.59 7.668-7.132-1.173-6.577 1.676-12.972 4.837-18.532 3.07-5.339 7.227-9.916 10.275-15.259 3.161-4.65 7.734-8.041 11.475-12.18 4.204-4.097 7.279-9.388 12.297-12.588 6.106-4.005 12.531-7.682 19.511-9.864 7.95-2.819 15.866-5.92 24.188-7.43 4.218-.754 8.444-1.473 12.692-2.044 2.372-.303 4.797-.684 7.174-.173-3.966 2.303-8.508 3.221-12.843 4.563-6.733 2.005-13.665 3.465-20.195 6.102-3.966 2.77-8.244 5.022-12.583 7.114a222 222 0 0 1-1.845-2.356c-4.018 1.775-7.179 4.95-10.465 7.799-7.95 7.322-15.671 14.925-22.824 23.053-2.247 2.62-4.482 5.343-5.859 8.552-2.065 5.408-7.638 8.933-8.556 14.873.208 3.993 5.772 4.157 6.547 7.825-.294 2.243-1.992 3.901-3.369 5.555-4.087 4.499-8.244 9.184-10.426 14.991-2.772 7.153-2.139 14.978-3.036 22.473-.437 5.3-1.571 10.76-.208 16.021.957 3.59 4.231 5.854 7.574 6.928 2.598 1.048 5.902 1.671 7.257 4.469 1.251 2.806 1.498 5.936 2.598 8.803 2.403 6.781 7.279 12.18 11.578 17.775 3.655 4.598 7.024 9.638 11.943 12.972 8.66 5.794 19.429 5.937 28.95 9.496 4.521 1.589 8.842 3.841 13.566 4.815 6.543 1.373 13.272 1.074 19.914 1.044 10.869-.256 21.014-5.642 28.947-12.899 7.201-6.677 12.942-15.896 13.09-26.028.194-3.365-1.282-6.461-3.231-9.08.953-4.963-1.94-9.691-5.443-12.887-4.996-4.533-11.916-5.893-18.428-6.083-2.299-.213-4.733.103-6.915-.78-1.187-.39-.849-2.052-.165-2.78 2.092-2.507 5.239-3.728 8.206-4.828 5.715-1.866 11.808-2.996 17.813-2.217 4.677.879 9.449-1.827 14.03.191 4.031 1.147 4.81 6.118 8.452 7.824 4.196 2.33 8.543 5.105 10.635 9.665 1.416 2.654 1.42 5.78 2.619 8.491 1.706 2.053 4.971-.151 6.868 1.55.467 1.143.632 2.369.952 3.564 5.98-4.685 10.825-11.778 10.916-19.667.351-2.919 1.797-5.551 2.287-8.439 1.394-7.232.376-14.844-2.503-21.581-1.122-2.72-2.672-5.214-3.91-7.864-1.199-2.407-.918-5.257-2.074-7.673-1.126-2.303-3.174-3.97-5.296-5.278-4.243-2.581-9.05-3.927-13.497-6.084-1.446-.766-3.061-1.559-3.836-3.1q-.02-1.337 1.16-1.862c2.165-1.147 4.69-1.238 7.089-1.273 10.665.316 21.351 5.049 28.188 13.467 3.031 3.793 5.885 7.737 8.492 11.842 2.658 4.192 4.195 8.942 6.222 13.445 1.191 2.944 4.759 3.477 6.452 5.993 1.68 2.416 1.766 5.469 2.494 8.24.758 3.139 3.771 5.391 3.611 8.82.32 2.581-.719 5.794 1.321 7.846 2.416 1.55 6.478 1.022 7.508-2.026 2.533-5.893 4.625-11.977 7.149-17.879 1.005-2.793 2.75-5.365 3.009-8.387.403-3.828.078-7.807-1.472-11.349-.71-1.724-1.741-3.313-2.273-5.106-.191-1.589.619-3.074.931-4.598 1.1-4.079.099-8.439-1.819-12.094-1.407-2.771-3.572-5.036-5.174-7.673 4.17.641 7.989 2.568 11.773 4.356 7.11 3.538 13.93 8.873 16.818 16.606 2.26 5.465 1.91 11.479 2.854 17.216.567 3.655 3.615 6.781 2.771 10.657-.632 2.823-2.027 5.81-.567 8.625a12.1 12.1 0 0 0 4.061 2.901c2.152.152 4.612-.545 6.452.979 2.13 1.675 1.979 4.798 3.642 6.802 1.099.949 2.507 1.425 3.784 2.1 1.446-9.699 3.217-19.602 1.693-29.405-.723-4.923-2.901-9.474-3.611-14.389-.814-5.534-.983-11.176-2.399-16.614-1.897-7.794-5.876-14.8-9.717-21.741-5.356-9.6-10.673-19.602-19.087-26.855-2.156-1.992-4.815-3.456-6.56-5.868-6.018-9.625-17.181-13.765-24.919-21.628-2.776-2.832-4.153-6.686-6.651-9.721-4.256-5.075-10.288-8.14-16.264-10.635-6.209-2.61-12.778-4.183-19.152-6.309-2.762-.866-5.113-2.62-7.122-4.672-4.296-4.33-10.224-6.374-16.048-7.517-9.482-2.043-19.216-.818-28.786-1.814-11.626-2.126-22.923 2.793-34.437 3.442 1.988-2.697 4.945-4.382 7.773-6.044 5.018-2.798 10.457-5.036 16.185-5.755 2.43-.325 4.841.303 7.266.355 2.087-.303 4.088-1.048 6.179-1.364 5.742-.93 11.579-.528 17.359-.203 3.226-6.249 9.903-9.488 16.208-11.666z"/><path fill="#00d4fb" d="M185.144 30.923c2.087-.45 4.244-.728 6.352-.226-2.351 1.728-5.035 2.876-7.573 4.296-2.788 1.515-5.421 3.312-8.249 4.763-12.106 6.309-24.395 12.561-35.077 21.204-3.564 3.178-7.509 6.764-8.466 11.687-.502 2.356 2.062 2.949 3.69 3.555-6.166 4.27-12.718 7.937-18.78 12.367-1.706 1.299-3.637 2.394-4.992 4.105-2.919 5.053-6.993 9.261-10.405 13.96-5.214 7.045-10.557 14.185-13.852 22.408-.347-.693-.684-1.373-1.03-2.053-1.975 3.642-3.794 7.379-5.188 11.297.39-2.555.758-5.101 1.1-7.655 1.095-6.963 4.117-13.475 7.889-19.347 1.225-2.013 3.2-3.763 3.317-6.274.775-8.362 4.659-16.134 9.825-22.577 2.494-2.958 5.282-5.898 8.894-7.417 1.909-.858 4.39.437 5.962-1.27 3.282-3.07 6.192-6.533 9.6-9.469 10.53-7.872 20.585-16.528 32.077-23.006 7.82-4.481 16.043-8.513 24.898-10.353zM209.886 59.964c4.152-2.057 8.361-4.356 13.025-4.898-3.205 2.737-7.214 4.21-10.704 6.513-3.269 1.875-5.902 4.633-8.946 6.828-4.88 3.612-9.938 7.006-14.484 11.06-2.04 1.74-3.023 4.342-4.811 6.312-7.889 9.397-15.454 19.248-20.806 30.384-1.572 3.109-2.403 6.561-4.269 9.514-1.2 1.913-2.62 3.702-3.43 5.841-2.797 6.824-5.23 13.956-5.585 21.399-.996-1.269-2.399-2.39-2.594-4.105-.745-3.971-.541-8.071.022-12.046.359-2.447-.403-4.897-.1-7.344.68-6.01 2.637-11.877 5.642-17.095 1.187-1.914 2.507-4.33 5.071-4.287 3.057-4.533 5.936-9.192 9.244-13.544 2.854-3.88 6.339-7.21 9.847-10.479 9.955-9.296 20.879-17.636 32.873-24.049zm-54.697 59.477c-.338-.506-1.018-1.515-1.356-2.026-1.701 5.91-3.68 11.89-3.715 18.104.684-1.611 1.282-3.265 2.157-4.785 1.086-1.875 2.866-3.299 3.546-5.404 2.074-6.439 5.321-12.384 7.807-18.654-3.754 3.538-5.954 8.305-8.439 12.761zM602.955 265.062c4.607-1.849 9.219.632 13.415 2.429 2.36.892 2.966 3.568 3.256 5.824-1.442 2.165-4.062 3.001-6.114 4.421.338 1.498 1.68 3.274.506 4.724-1.792 2.001-4.598 2.654-6.404 4.65-1.455 1.598-2.585 3.568-4.503 4.673-2.996 1.775-6.543 2.065-9.911 2.533-8.193.935-16.442 1.173-24.651 1.788-7.717.567-15.221 2.581-22.885 3.516-10.877 1.511-21.927 1.671-32.696 3.958-5.681 1.156-11.046 3.589-16.805 4.395-9.076 1.338-18.286 1.273-27.431 1.173-14.895-.147-29.734-1.546-44.556-2.918 9.989-1.512 20.139-1.312 30.215-1.364 14.237-2.031 28.591-3.451 42.972-3.789 2.914-.199 6.217.606 8.798-1.16 8.543-6.262 19.693-5.426 29.687-5.643 3.797.152 6.664-2.875 10.34-3.303 7.812-1.247 15.731-.265 23.551.389 2.503.455 3.625-2.403 5.781-3.048 4.967-1.485 10.327-.74 15.259-2.403 2.49-.793 3.36-3.651 5.499-4.967 4.036-2.62 8.994-3.317 12.93-6.122 1.264-.905 2.502-2.599 1.623-4.192-1.545-3.035-4.836-4.546-7.876-5.568z"/><path fill="#abfcff" d="M155.189 119.442c2.481-4.456 4.685-9.223 8.439-12.761-2.481 6.27-5.733 12.211-7.807 18.654-.675 2.104-2.455 3.529-3.546 5.404-.875 1.515-1.472 3.174-2.156 4.785.034-6.214 2.013-12.194 3.715-18.104.337.506 1.017 1.515 1.355 2.026z"/><path fill="#2df8ff" d="M328.876 5.562c7.522-3.927 16.082-5.906 24.547-5.477 5.088.312 10.678 2.013 13.605 6.564 1.706 2.347 2.061 5.616 4.378 7.517 3.429 2.196 8.132.961 11.293 3.763 2.152 1.823 2.658 5.668 5.91 5.98 6.288.502 12.493-2.33 18.78-1.07 2.979.563 5.278 2.858 6.724 5.439 2.235 3.953 3.625 8.318 5.201 12.561 1.32 3.889 2.966 7.808 2.97 11.99.065 2.17-.151 4.798 1.797 6.257 2.126 1.083 5.036.468 6.634 2.555 1.987 2.81 1.927 6.486 3.395 9.548 1.121 2.671 3.676 4.373 4.841 7.027 1.316 3.04 1.796 6.353 2.671 9.535 1.823 6.824 4.534 13.917 10.159 18.455 3.126 2.555 6.209 5.317 8.248 8.872 3.443 5.906 4.036 12.96 7.05 19.048 2.572-1.84 4.784-4.746 8.231-4.724 4.811.147 8.877 3.468 11.838 7.045 6.088 7.794 8.994 17.991 8.158 27.868.035 1.615-.385 3.568.849 4.858 1.784.187 3.589.009 5.391.1 2.061 7.876 4.624 15.926 4.001 24.17-.195 3.642-2.559 6.565-5.391 8.582-6.967 5.24-5.824 15.693-12.12 21.443-2.438 1.931-4.261 4.486-6.452 6.673 7.305-4.413 13.969-9.99 19.55-16.515 1.499-1.559 2.607-3.594 4.573-4.62-.334 2.03-1.109 3.957-2.1 5.754-3.165 5.742-7.023 11.271-12.349 15.164-5.811 4.283-11.233 9.236-17.775 12.38-5.82 2.732-11.388 5.997-16.74 9.565-6.114 4.261-13.332 6.395-20.365 8.526-7.391 2.104-14.93 3.663-22.524 4.745 9.188-3.788 18.316-7.984 26.383-13.903-9.254 3.931-17.944 9.902-28.076 11.236-10.297.576-20.495 3.325-29.687 8.058 1.55-.021 3.087-.177 4.637-.264-6.954 4.04-14.181 7.764-21.815 10.306-7.114 1.701-13.28 6.057-20.394 7.772-5.72 1.386-11.6 1.866-17.437 2.434-3.269.593-6.491 1.463-9.73 2.238 9.02.251 18.169.542 26.907 3.04 3.966 1.299 7.846 3.126 11.076 5.832 1.793 1.546 4.352.793 6.495.797 3.192-3.022 7.838-3.594 12.003-2.91 1.178.165 1.927 1.161 2.685 1.992 1.342-.125 2.698-.268 4.053-.303-1.949.567-3.962.948-5.833 1.775 5.318.884 10.7.343 16.034.026 7.401.78 14.839 1.312 22.214 2.356 2.481.429 5.096.654 7.33 1.962-2.94.316-5.767-.858-8.69-.758-3.061-.173-6.04.857-9.097.528-6.145-.342-12.363.087-18.286 1.849-4.062.918-8.132 2.026-12.328 2.018-7.192.255-14.376.805-21.568 1.069-6.053-.706-12.12.407-18.186-.117-5.976.009-11.938-.268-17.905-.381 22.33-.173 44.556-2.554 66.83-3.884 2.693-.809 5.283-2 8.167-2.143-4.828-1.308-9.838-.931-14.766-1.347-3.07-.073-6.062.797-9.11.905-6.773-.325-13.592-.026-20.291-1.208 2.966-.632 5.954-1.212 8.981-1.515-4.456-.845-8.946-2.239-13.527-1.654-2.876.277-5.552 1.654-8.453 1.697-2.005.039-3.923-.615-5.819-1.173-2.377 1.143-4.984 1.628-7.548 2.139-.143-.343-.428-1.022-.571-1.36-3.213.052-6.283 1.212-9.483 1.377-4.993.251-9.964 1.035-14.973.771-5.279-.2-10.362 1.61-15.619 1.641-6.967.091-13.847 1.987-20.81 1.476-3.962-1.017-7.924.178-11.847.715 1.663-1.663 4.131-1.702 6.274-2.17 6.482-1.186 13.125-.792 19.607-1.987 2.94-.464 6.218-.464 8.517-2.68 1.42-.126 2.736-.659 3.966-1.373-4.066-1.208-7.976-2.983-12.185-3.663-4.416-1.057-8.98-.16-13.436-.832-7.937-1.043-15.718-3.325-23.776-3.325-12.367.138-24.694-1.663-37.07-1.269-7.547 1.338-14.583-2.407-21.862-3.676-3.109-.68-6.3-.654-9.448-.407-5.681.394-10.877-2.442-16.389-3.261-3.668-.619-7.323.832-10.986.13-5.876-.866-11.864-2.078-17.086-5.079-2.797-1.637-5.408-3.806-6.907-6.755-4.066 1.395-8.504.269-12.21-1.636-5.417-2.75-9.487-8.163-10.297-14.29-.438-1.662-.143-4.122-2.113-4.815-4.85-1.836-9.903-3.083-14.779-4.849-4.477-2.243-7.599-6.573-9.76-11.012-4.932-1.13-6.27-6.473-9.31-9.816-1.922-2.156-2.034-5.226-3.636-7.56-2.326-2.763-3.045-6.478-3.798-9.929.875-8.305 4.04-16.965 10.561-22.395 1.845-1.775 4.464-1.351 6.703-1.814 4.118-3.915 7.153-9.236 12.483-11.674 3.603-1.879 7.929-1.611 11.523.151-1.507-5.546-2.295-11.613-.528-17.194.45-1.75 1.753-3.023 3.256-3.893-.72-9.864 3.377-19.905 10.613-26.513 2-1.961 5.43-3.364 7.586-.797 2.905-4.282 5.434-8.915 9.097-12.609 10.877-10.063 22.088-19.991 35.052-27.231 2.429-1.59 5.434-1.486 8.076-2.546-.464.87-1.009 1.727-1.888 2.225-3.728 2.572-8.067 4.031-11.839 6.517-2.663 1.715-4.321 4.495-6.027 7.093-1.702 2.624-3.806 4.94-5.859 7.283-4.758 5.464-7.577 12.336-12.444 17.71-2.867 3.472-6.478 6.196-9.388 9.612-2.464 2.806-2.559 7.128-5.599 9.483-1.459 1.239-3.689 2.304-3.481 4.599.372 6.049 2.247 12.219.52 18.242-.81 3.828-4.14 6.703-4.118 10.756-.035 3.274.506 6.517.584 9.786.286 5.075-.207 10.167-1.225 15.138-.268 1.84-.927 3.945.13 5.668 1.394 2.256 3.269 4.157 4.867 6.261 4.65 5.993 8.803 12.627 10.635 20.105.861 4.078 3.927 7.053 6.04 10.483 2.983 4.533 5.975 9.348 6.417 14.93 1.381 3.277 3.243 6.365 4.43 9.76 1.623-.49 3.33-1.083 5.023-.533 4.035 1.009 7.716 3.1 11.201 5.33-2.061-1.918-4.494-3.68-5.668-6.335-.692-2.329-.762-4.888-2.165-6.954-2.966-4.676-7.356-8.417-9.383-13.696-1.533-4.144-2.724-8.426-3.654-12.739 2.684 3.98 4.711 8.375 7.348 12.393 2.468 3.767 5.265 7.335 8.374 10.591 3.771 3.889 9.266 5.396 12.973 9.362 4.737 4.953 10.34 9.348 16.974 11.271 5.252 1.961 10.673 3.455 16.211 4.295 4.313.628 8.141 2.897 12.168 4.447 2.325.957 4.854.178 7.27.091 4.139-.255 8.296-.541 12.375-1.364-5.179-.719-10.543-1.199-15.272-3.637-5.296-2.195-10.479-4.689-15.363-7.721-6.928-3.732-14.93-6.365-19.953-12.847-1.771-1.905-1.446-5.165-3.884-6.499-5.819-3.871-11.786-7.885-15.926-13.67-1.152-1.55-1.784-3.391-2.325-5.218-.437-1.476-1.823-2.321-2.815-3.39-2.983-2.724-5.421-6.352-5.819-10.492-.182-1.208-.035-2.719-1.334-3.304-4.763-2.987-10.054-6.174-12.107-11.769 3.135-8.292 9.522-15.675 17.68-19.173-1.901-4.538-.927-9.635.862-14.034 1.727-4.36 4.386-8.24 6.867-12.18 1.615-2.378 1.217-5.456 2.481-7.976 1.897-4.006 5.127-7.154 8.699-9.648 2.139-2.806 4.387-5.629 7.664-7.127-1.242-6.915 1.914-13.579 5.305-19.373 2.572-4.334 5.897-8.149 8.556-12.418 3.126-5.859 8.716-9.674 13.038-14.54 3.862-3.807 6.716-8.656 11.245-11.744 4.902-3.425 10.171-6.3 15.614-8.733 7.205-2.486 14.311-5.318 21.646-7.392 5.283-1.55 10.752-2.295 16.173-3.195 3.533-.468 7.088-1.234 10.665-.858-1.455 1.45-3.668.641-5.46 1.208-5.162 1.187-10.315 2.495-15.32 4.244-4.426 2.026-9.349 2.46-13.822 4.382-3.152 1.377-6.625 1.814-9.734 3.317-2.481 1.299-5.482.593-7.902 2.091-3.624 1.537-6.049 4.759-9.072 7.145-2.632 2.152-4.494 5.088-7.161 7.205-6.101 5.049-11.098 11.245-16.299 17.186-3.135 3.438-6.127 7.015-8.902 10.76-2.828 3.858-4.387 8.444-6.288 12.8-1.42 3.022.087 6.3.732 9.331.546 1.624-.597 3.1-1.55 4.287-2.546 2.957-5.443 5.668-7.309 9.149-2.914 4.56-6.92 9.106-6.608 14.913.94 8.487-2.416 16.601-2.745 25.019-.853 8.227 1.087 16.502 4.763 23.832-.502-3.689-.736-7.612.827-11.084 1.256 2.394 1.537 5.126 2.217 7.711 2.092 8.929 5.205 17.914 11.193 24.98 2.165 2.434 4.205 4.989 6.521 7.279.927-1.437 1.256-3.663 3.161-4.118 3.265-.428 6.296 1.308 9.05 2.858 3.793 2.382 7.924 5.079 9.414 9.587 2.606 3.009 4.373 6.573 5.585 10.366 2.1 1.537 4.296 2.957 6.283 4.659 2.048.845 4.365.832 6.465 1.572 2.685.753 4.56 3.33 7.443 3.551 4.335.467 8.717.077 13.047.653 3.624.394 6.811 2.568 10.492 2.698 6.261.489 12.557.29 18.809.922 4.157.455 8.418.152 12.428-1.069 2.541-.853 5.269-.58 7.872-1.156 2.39-.381 4.659-1.533 7.127-1.377 4.399.026 8.98-.087 13.077-1.893 3.845-1.571 8.053-1.861 11.981-3.16 11.423-4.824 22.174-11.064 32.904-17.256 5.495-3.594 11.193-7.114 15.796-11.868-1.468-1.057-1.745-3.057-.442-4.382 4.72-5.729 11.938-9.059 19.191-9.877 1.334-.013 1.992-1.325 2.841-2.152 1.844-2.209 4.347-3.676 6.625-5.365-2.118-1.485-3.036-4.231-2.04-6.686.749-3.009 3.676-4.447 5.482-6.677.572-3.022.117-6.239 1.351-9.123 2.412-6.24 4.88-12.462 7.552-18.593 1.368-5.192.801-10.96-1.728-15.718-.749-1.65-2.1-3.417-1.277-5.3 1.082-3.179 1.649-6.63.744-9.929-.983-4.785-4.243-8.513-6.98-12.358 4.893.658 9.422 3.879 11.678 8.348 1.356 2.503 2.062 5.278 3.083 7.933.97 2.606 3.265 4.507 3.91 7.279 1.239 4.732 1.667 9.638 2.685 14.423 1.494 7.508 1.087 15.393-1.238 22.685-1.009 3.455-2.62 6.738-3.265 10.301-.788 3.902 2.637 7.27 1.55 11.202-1.771 7.101-7.435 12.155-11.115 18.199-.559 4.183-4.14 6.781-7.141 9.258-3.308 2.468-6.599 5.131-10.543 6.478-4.863 2.139-9.773 4.559-15.142 4.927-2.235.204-4.556-1.086-6.703-.073-3.257 1.476-6.262 3.464-9.483 5.027-1.975 1.082-4.183 1.775-5.889 3.304-4.04 3.525-8.916 5.923-13.874 7.811-4.84 1.537-9.292 4.183-14.284 5.244-2.529.619-5.149-.178-7.682.442-3.715.744-7.435 1.649-11.254 1.615-6.607-.013-12.882 2.355-19.372 3.251 5.871 2.153 11.279 5.707 17.536 6.686.905.186 1.758-.286 2.62-.502 5.781-1.992 11.553-3.971 17.377-5.824 7.486-2.403 14.549-6.049 22.213-7.924 11.864-3.035 23.646-6.5 35.025-11.089 13.415-5.556 26.513-12.107 38.412-20.525 1.061-.758 2.217-1.398 3.499-1.701-1.377 2.723-4.178 4.343-5.469 7.101 2.611-.269 5.27-.589 7.747-1.533 1.446-2.252 1.784-5.053 3.39-7.231 3.603-5.14 9.02-9.119 15.155-10.453 1.767-.19 1.65-2.368 2.144-3.663 1.667-6.084 4.529-12.86 10.6-15.567.887-.645 1.368-1.701 1.935-2.619a56.7 56.7 0 0 0 5.924-16.857c.333-1.888.636-3.789 1.164-5.629 1.585 2.178 1.871 4.949 2.321 7.534 1.347 9.686.1 19.689-3.191 28.864 2.256-4.646 7.794-6.261 10.02-10.92 2.087-3.871 1.42-8.401 1.121-12.596-.554-3.893 2.815-6.812 2.828-10.622.273-6.175-1.152-13.038-5.742-17.424-3.191-8.175-7.759-15.723-12.687-22.936-1.121-1.611-2-3.378-2.555-5.257-2.247-7.392-5.845-14.376-10.595-20.429-1.533-2.204-4.352-3.04-5.651-5.439-3.269-5.438-5.772-11.301-8.85-16.844-2.101-3.07-4.443-6.123-7.799-7.837-3.533-3.252-6.179-7.418-9.898-10.483-1.481-.936-3.296-1.32-4.495-2.693-5.192-5.288-10.622-10.414-15.138-16.325-2-3.234-5.226-5.317-8.171-7.56-10.608-7.781-21.698-14.917-33.406-20.858-2.04-1.082-4.243-1.918-5.98-3.477 1.65.026 3.295.216 4.919.563 8.651 1.75 17.286 3.953 25.379 7.6-6.288-5.452-12.636-10.856-19.451-15.624-1.823-1.169-3.91-1.775-5.937-2.455-4.698-1.476-9.435-2.918-14.302-3.676-1.927-.225-4.027-.589-5.824.355-.004.277-.021.823-.021 1.1 1.407 1.827 3.507 2.957 4.94 4.776-3.615.1-7.188-.64-10.803-.606-7.586-.035-15.164.515-22.72 1.082-6.361.463-12.665 1.546-19.052 1.563-8.994.087-17.455 3.53-25.773 6.617 2.131-3.14 5.694-4.802 8.864-6.673 6.274-3.178 13.324-6.084 20.472-4.81 1.927.424 3.785-.39 5.642-.797 6.439-1.546 13.116-1.018 19.659-.667 1.884-3.94 5.456-6.677 9.18-8.69zM175.609 33.75c4.689-1.723 9.552-3.316 14.596-3.351-9.469 3.386-18.589 7.634-27.604 12.076-8.889 3.096-15.839 9.739-23.196 15.38-6.365 4.136-12.492 8.756-17.684 14.36-2.762 3.312-5.975 6.182-8.772 9.46 2.684-.983 5.113-2.58 7.885-3.338-2.014 2.226-4.443 4.005-6.621 6.062-10.258 9.336-18.74 20.724-24.396 33.48-1.112 2.988-1.597 6.248-3.55 8.846-1.689 3.806-3.083 7.76-4.698 11.613.783-4.975 1.147-10.063 2.88-14.826 1.96-5.326 4.61-10.413 8.005-14.943.802-1.022 1.369-2.225 1.42-3.542.823-8.833 5.084-17.034 10.744-23.68 2.385-2.607 4.992-5.266 8.378-6.465 1.68-.685 3.811.515 5.24-.87 4.676-4.262 8.608-9.436 14.042-12.788 13.349-10.742 27.284-21.217 43.326-27.465z"/><path fill="#2df8ff" d="M206.959 61.579c5.01-2.68 10.115-5.62 15.788-6.504-1.771 2.27-4.945 1.975-7.348 3.1-4.759 2.434-9.462 5.175-13.19 9.098-2.494 2.784-5.988 4.192-9.136 6.032l1.598-2.29c-6.92 4.927-12.713 11.27-18.546 17.432-4.031 4.897-9.167 8.903-12.284 14.523-1.113 1.979-2.399 3.854-3.482 5.854.71 1.321-.112 2.633-.645 3.841-.849 1.749-1.693 3.512-2.208 5.395-.862 3.512-3.616 6.101-4.785 9.487-1.602 4.811-1.719 9.929-2.464 14.917-.454 3.438-.013 6.907-.337 10.358-3.382-2.559-3.096-7.132-3.088-10.951-.021-2.377.581-4.685.676-7.032-.26-2.005-.542-4.04-.23-6.058.84-6.075 2.854-12.033 6.08-17.246 1.069-1.55 2.256-3.741 4.464-3.291 2.979-4.469 5.82-9.033 9.045-13.324 3.101-4.286 6.959-7.932 10.826-11.5 8.932-8.318 18.701-15.762 29.262-21.841zM504.893 129.237c7.69 4.066 14.185 10.05 20.407 16.091 7.942 8.127 15.428 16.904 20.845 26.993 2.854 5.066 3.65 10.912 5.036 16.489a150 150 0 0 1 3.048 18.156c4.374 1.931 5.85 7.093 6.903 11.397 1.307 5.291.463 10.795-1.707 15.718-1.948.06-2.775 1.875-3.381 3.464-1.321 3.464-3.928 6.174-5.82 9.309-1.948 3.062-3.269 6.664-6.196 8.959-4.079 3.222-8.981 5.066-13.566 7.392-5.27 2.481-10.249 5.616-15.757 7.56-4.711 1.598-9.422 3.209-14.134 4.811-2.71.97-5.598 1.095-8.426 1.364-8.218.879-15.939 3.992-23.633 6.815 5.291-2.303 10.349-5.127 15.64-7.43 2.152-.922 4.152-2.152 6.17-3.326-2.425.529-4.451-.77-6.594-1.515-4.828 1.641-8.929 4.888-13.428 7.24-5.153 2.87-10.245 5.962-15.809 7.958-6.876 1.836-13.943 2.837-21.027 3.399-8.192.884-16.445.931-24.668.62-5.859-.256-11.682.58-17.528.757a824 824 0 0 1-31.367.139c-2.75-.264-5.962.199-8.184-1.827 4.04-.078 8.093-.139 12.098-.745 7.011-.897 13.835-2.884 20.824-3.889 4.299-.701 8.66-1.004 12.946-1.762 3.075-.519 5.456-2.75 8.353-3.75 7.521-2.862 15.801-4.572 23.789-2.909 1.65.285 3.348.103 4.945-.395 4.993-1.537 9.89-3.563 15.112-4.178 2.442-.338 5.331.489 7.335-1.399 6.054-5.2 12.38-11.189 20.676-11.994 1.572.048 2.092-1.576 2.646-2.75 2.182-5.204 6.651-9.885 12.354-10.781 1.662-.165 1.875-2.17 2.424-3.417.94-3.035 2.101-6.296 4.829-8.153 2.515-1.793 6.088-2.988 8.98-1.407 1.702.922 1.875 3.039 2.23 4.75 4.85-1.022 10.132-1.598 14.744.658 1.961.805 3.356 2.607 5.348 3.325 2.312-.368 4.243-1.866 6.373-2.762 1.728-.923 3.754-1.412 5.205-2.785.875-2.043 1.035-4.33 1.962-6.36 1.225-3.209 3.433-5.868 5.022-8.868 1.148-2.178.624-4.703.607-7.045-.182-4.664.48-9.444-.866-13.986-1.187-4.322-1.317-8.855-2.464-13.177-1.403-4.092-3.113-8.062-4.581-12.128-1.165-3.767-4.482-6.136-6.747-9.184.065-1.754-1.584-2.572-2.637-3.65-3.459-3.391-4.585-8.388-7.668-12.055-1.988-2.369-3.746-5.01-6.287-6.816-5.474-3.498-9.206-9.041-14.38-12.921zM333.332 132.264c8.504-.546 17.255 2.23 23.785 7.824 4.542 3.789 7.988 8.678 11.808 13.164 3.36 4.083 7.032 8.101 8.967 13.137 1.888 4.785 1.975 10.015 2.087 15.094a20 20 0 0 0 2.221 9.085c1.291 2.433 1.317 5.369.403 7.946-1.199 3.914-4.152 7.746-2.481 11.989-1.416 2.482-4.014 4.118-4.945 6.92-3.031 2.611-6.504 4.871-8.824 8.21-4.789 10.608-13.982 18.216-23.348 24.551-5.088 3.499-11.141 4.828-16.983 6.409-4.217 1.043-8.058 3.485-12.466 3.706-3.962.424-7.69 1.979-11.591 2.732-6.92 1.81-13.722 4.408-20.919 4.815-2.221.191-4.416.615-6.625.884-2.983.376-6.014-.091-8.972.48-3.68.715-7.443.351-11.128-.013-5.456-.58-10.868-1.411-16.298-2.195-4.456-.628-8.413-2.932-12.367-4.941-4.087-2.23-8.249-4.421-11.812-7.456 7.963 2.724 15.748 6.625 24.265 7.197 3.049-.425 6.101-.936 9.202-.615-4.365-2.152-9.267-2.693-13.718-4.564-3.598-1.563-6.413-4.412-8.98-7.322 6.967 1.589 14.003 3.083 20.572 6.006 5.343 2.394 11.098 3.806 16.948 3.953 7.616.078 15.488.706 22.806-1.905 9.513-3.352 18.035-9.626 24.088-17.784 4.339-6.049 7.521-13.475 6.863-21.087-.156-2.733-1.663-5.062-3.165-7.227 1.074-5.244-2.273-10.228-6.088-13.432-5.846-4.841-13.722-5.516-20.975-5.633-1.91-.013-5.127-.191-4.386-2.945 7.006-1.45 14.717-1.888 21.243 1.572 3.252 1.78 6.3 3.919 9.474 5.846-1.269-1.347-1.888-3.122-2.888-4.638-1.637-1.394-3.733-1.992-5.512-3.139 4.373.048 8.56 1.576 12.57 3.213 3.057 1.394 6.17 2.819 8.816 4.94 2.758 2.91 4.516 6.617 6.153 10.254 1.416 2.901.398 6.283 1.39 9.288.632 1.953.403 4.031.554 6.058 1.524-2.46 1.966-5.383 3.148-8.002 2.087 5.715-.758 11.674-3.2 16.783-2.386 3.741-4.399 7.92-7.989 10.669.528.022 1.585.061 2.113.078 2.663-1.827 6.088-2.433 8.275-4.94 2.892-2.793 5.417-5.963 8.491-8.565 3.075-2.793 6.387-5.326 9.279-8.314-.294-2.369 1.364-4.343 1.507-6.642-.138-.992-.398-1.94-.636-2.897 3.204-3.378 6.001-7.292 7.422-11.8 1.004-2.888.372-6.096 1.615-8.928 3.178-8.253 2.632-17.671-.619-25.82-1.546-4.525-5.023-8.292-5.448-13.198-.268-2.75-1.758-5.266-3.91-6.933-5.269-4.308-12.237-5.382-17.913-8.945-1.126-.581-1.65-1.737-1.871-2.923zM56.577 157.381c.584-.1 1.52-.996 1.926-.217-3.693 3.049-8.62 5.27-10.405 10.063-2.013 3.958-5.304 7.028-7.885 10.596-1.546 2.334-2.762 4.889-3.74 7.517-1.43 4.334-.416 8.933-.126 13.363 1.008 8.612 2.165 17.22 3.862 25.724.606 3.564 3.624 5.885 5.447 8.803 3.087 4.915 4.867 10.73 4.928 16.567 4.776-.892 8.573 3.594 10.275 7.625 2.338 1.035 4.274 2.746 6.014 4.608 3.616-.299 6.876 1.71 9.552 3.944 2.94 2.533 5.617 5.772 6.219 9.76 5.074-1.81 11.193 1.975 12.028 7.331.429 2.1 2.676 3.027 3.824 4.711 2.1 3.373 7.179 2.33 9.193 5.841-.784 1.057-2.235.68-3.335.615-3.113-.381-5.901-2.169-9.006-2.485-2.624.658-5.33.376-7.876-.468-4.378-1.325-8.717-2.858-12.752-5.049-8.93-4.044-18.42-7.105-28.202-7.945a22 22 0 0 1-2.425-1.022c.567-.147 1.693-.425 2.256-.567-2.23-2.534-5.278-3.984-8.127-5.656-1.46-.692-.585-2.641-1.378-3.793-1.584-2.611-4.373-4.027-6.672-5.871.052-2.165.68-4.638-.632-6.552-1.94-1.849-5.045-.277-7.136-1.377-2.494-4.836-3.642-10.413-3.43-15.856.234-5.205 2.412-10.756 7.032-13.475 1.654-1.074 3.677-1.087 5.578-1.122.363-2.342.597-4.698.736-7.058-1.33-1.71-1.213-3.97-1.282-6.019.13-7.348 1.316-14.622 2.156-21.905.94-8.024 5.6-14.991 10.947-20.733 3.667-3.84 7.703-7.456 12.427-9.889z"/><path fill="#2df8ff" d="M566.587 239.679c2.88-3.702 8.375-6.239 12.826-4.07 2.953 3.226 8.054 3.529 10.275 7.522 1.784 2.381 3.785 5.1 3.217 8.292-.19 2.844-2.169 4.988-3.719 7.183-2.429 4.027-5.46 7.625-8.236 11.41-2.178 3.083-5.949 4.07-9.318 5.152-2.624.758-5.023 2.231-7.755 2.62-6.093 1.035-12.302 1.598-18.251 3.334-2.196.464-3.534 2.733-5.811 2.876-5.101.666-10.232 1.212-15.194 2.619-7.799.355-15.745.832-23.218 3.3-2.105.506-3.2 2.697-5.218 3.312-10.115 2.568-20.546 3.122-30.865 4.283 3.638-2.17 7.929-2.503 11.977-3.386 3.044-.477 5.924-1.624 8.929-2.239 1.896-.606 3.992.97 5.716-.424 5.953-3.616 12.812-5.279 18.896-8.63 5.729-2.871 11.527-5.595 17.45-8.028 1.42-.589 2.789-1.312 3.988-2.295-2.97-.048-5.846.909-8.812.823 4.495-4.369 10.198-7.132 15.589-10.163 3.888-2.113 8.387-2.381 12.522-3.676 3.798-2.633 8.387-3.399 12.622-5.002-1.901-1.766-5.296-2.593-5.534-5.62.732-4.334 4.867-6.629 7.929-9.197zM603.021 265.188c2.312-1.035 4.958-1.044 7.304-.087 2.321.892 4.759 1.576 6.89 2.91 1.857 1.087 1.9 3.49 2.528 5.33-1.693 2.005-4.157 3.009-6.287 4.434.424 1.477 1.745 3.226.559 4.69-2.144 2.268-5.56 2.948-7.309 5.681-1.624 2.42-3.993 4.33-6.851 4.988-5.936 1.433-12.072 1.697-18.138 2.1 4.005-2.356 8.14-4.698 12.752-5.569 2.403-.619 5.031-.632 7.205-1.987 1.771-1.1 3.65-2.031 5.473-3.048 1.377-.654 1.446-2.417 2.092-3.638.679-2.126 2.507-3.637 2.966-5.854.35-2.07 2.637-2.611 3.923-3.979-2.243-1.464-4.772-2.546-6.612-4.547-1.875-1.398-4.391-.645-6.491-1.433z"/><path fill="#2df8ff" d="M610.909 269.946q.72.551 1.473 1.122c-.442.74-.862 1.502-1.278 2.264-.06-1.143-.117-2.264-.195-3.386M596.702 280.68c4.365-2.507 9.5-3.412 13.562-6.517-2.026 4.564-6.599 6.92-9.968 10.293-2.572 1.931-5.993 1.926-8.69 3.611-1.295.753-2.711 1.307-4.209 1.398-4.594.355-9.123 1.208-13.657 1.94-4.191.628-8.166 2.308-12.406 2.62-5.113.416-10.08 1.788-15.15 2.473-3.408 0-6.838-.174-10.224.303-4.52.264-9.127-.013-13.535 1.225-3.98 1.238-8.249 1.533-11.995 3.477-2.182 1.238-4.763.996-7.149 1.451-3.94.424-7.772 1.623-11.747 1.688-8.504.329-16.97 1.17-25.439 1.893-6.746-.061-13.501.173-20.226-.442-7.045-.528-14.098 1.143-21.126.164 9.786-1.576 19.771-1.346 29.648-1.346 15.952-2.33 32.064-3.815 48.193-3.867 3.036.16 4.997-2.529 7.63-3.564 8.101-3.498 17.099-3.057 25.72-3.2 3.923.148 6.863-3.095 10.704-3.377 7.24-.978 14.575-.364 21.811.403 1.03.065 2.1.16 3.135-.078 1.403-.948 2.425-2.507 4.131-2.958 4.867-1.385 10.084-.727 14.921-2.282 2.788-.757 3.585-4.065 6.075-5.312zM17.099 281.14c4.23-1.629 8.457-3.542 13.038-3.832 2.074-.187 4.027.64 6.001 1.099-2.442 1.412-5.334 1.486-7.976 2.321-4.932.979-9.396 3.577-14.406 4.222-2.723.368-5.832 2.143-5.304 5.404 2.477.797 5.24 1.018 7.33 2.732 2.555 2.018 5.46 3.499 8.479 4.672 3.927 1.538 7.82 4.815 8.218 9.332-1.571-1.009-2.9-2.317-4.014-3.815-1.576-2.04-4.269-2.46-6.586-3.126-5.694-1.46-11.535-2.533-16.995-4.789-1.832-.832-3.884-1.81-4.75-3.763-.58-2.204 1.212-3.945 2.663-5.279 3.416-2.897 7.43-4.962 11.47-6.811 2.663-1.082 5.538-2.39 8.457-1.589-1.706 1.36-3.715 2.217-5.625 3.222M108.143 290.964a13.4 13.4 0 0 1 6.079.641c3.59 1.26 7.457 1.463 11.012 2.857 2.022.646 3.849 1.754 5.819 2.529 2.802.758 5.824.277 8.574 1.312 1.532.494 2.347 2.014 3.559 2.975 2.503.394 5.057.013 7.578.104 3.693-.113 7.356.701 11.058.481 9.176-.438 18.442-.052 27.453 1.874 2.49.546 5.023 1.048 7.335 2.179-3.94.225-7.889-.178-11.834.151a84 84 0 0 1 5.638-.667c-5.772-1.082-11.613-2.156-17.511-1.749-8.465-.758-16.922.325-25.391.013-3.78-.355-7.509-1.156-11.215-1.931-4.854-1.533-10.042-1.559-14.826-3.347-2.39-.767-4.257-2.585-6.599-3.43-2.49-.866-4.56-2.555-6.734-3.992zM34.056 302.296c1.948 0 3.94-.213 5.845.316 5.395 1.286 10.812 2.641 16.376 2.896 9.102.494 18.213.892 27.31 1.602 11.942.866 24.153.252 35.805 3.486 10.375-.684 21.092-3.789 31.354-.641 4.573-.658 9.167-1.325 13.813-1.489 10.145-1.572 20.611-.931 30.536 1.749 4.425 1.221 9.023 1.615 13.6 1.516 10.167-.286 20.338-.377 30.497.277 19.502 1.234 39.091 1.701 58.46 4.499-6.413-.052-12.782-1.083-19.204-.957-4.572-.451-9.193.532-13.722-.489-4.481-.983-9.097-1.616-13.67-.957-2.637.554-5.166-.845-7.82-.503-7.604.49-15.207 1.36-22.837 1.1-4.919-.797-9.915-.758-14.856-1.412-7.833.455-15.683.13-23.517.615-7.837.286-15.67-1.043-23.494-.29-11.475 1.446-23.106.97-34.567-.29-8.223-.139-16.381-2.117-24.617-1.321-6.763.706-13.587.546-20.35-.034-5.418-.438-10.614-2.949-16.113-2.17-3.29.438-6.582-.052-9.86-.324-5.126-.317-9.859-2.52-14.661-4.157-1.719-.541-3.035-1.802-4.3-3.027z"/><path fill="#abfcff" d="M81.115 138.875c.875.117 1.022.589.468 1.412q-1.312-.196-.468-1.412M338.605 5.359c2.841-3.49 7.937-2.897 11.865-2.252 2.637.936 5.663.546 8.04 2.191 2.261 1.226 3.456 3.746 5.781 4.876 2.26 1.269 4.005 3.3 5.023 5.694 2.208.693 4.529 1.074 6.621 2.126 2.585 1.212 4.503 3.412 6.763 5.1 3.473 2.746 5.382 6.907 8.548 9.956 2.823-3.11 7.292-2.243 10.842-1.182.26-.784.113-2.572 1.481-2.105 4.321.91 7.941 4.334 10.015 8.188 1.434 2.243-.9 4.776.468 7.015.97 2.334 1.992 4.659 2.494 7.157-.208.39-.623 1.16-.836 1.55 1.836 2.586 3.434 5.366 5.383 7.873 4.338 3.442 8.248 7.473 11.457 12.029 2.659 4.698 5.192 9.482 7.205 14.51.84 2.251 2.49 4.044 3.56 6.183 1.584 2.62 2.528 5.616 4.451 8.023 1.334 1.655 2.104 3.668 2.918 5.621 2.399 1.173 4.841 2.555 6.387 4.828 2.066 3.061 3.668 6.486 4.573 10.08.584 2.763 2.338 5.036 3.507 7.547 1.16 2.153 1.936 4.512 3.282 6.561 2.001.619 3.603-1.754 5.625-1.914 4.3-.732 7.703 2.71 9.89 6.01 2.624 2.658 4.005 6.213 5.2 9.712 1.507 4.612 2.663 9.401 2.598 14.298-.073 1.576.723 2.97 1.243 4.408 1.533 4.057 2.117 8.405 2.36 12.726 3.334 3.109 2.481 9.119-.425 12.267-.649 3.611-1.251 7.357-3.277 10.483-.879 1.26-1.2 2.763-1.421 4.261-.424 2.468-1.961 4.486-3.239 6.56-1.714 3.247-3.42 6.538-5.707 9.413-2.039 2.533-5.226 3.919-7.006 6.677-1.229 3.326-4.364 5.192-6.746 7.595.606.065 1.819.191 2.416.256-6.88 5.105-14.237 9.677-22.139 12.99-4.261 1.788-8.249 4.46-12.839 5.313 2.533-3.209 6.673-4.499 9.362-7.548 1.771-2.026 3.953-3.689 6.443-4.715 1.771-3.351 4.724-5.906 7.833-7.946 1.152-.822 2.581-.896 3.914-1.195 1.317-2.459 3.27-4.425 5.244-6.339.901-3.715 3.533-6.56 6.261-9.045 1.485-1.208 1.364-3.352 2.36-4.885 2.217-3.641 6.002-6.473 10.262-6.962 1.135-4.149 1.442-8.444 1.308-12.726.411-4.235.268-8.492.364-12.739.822 1.532 1.446 3.152 2.113 4.763-.364-5.72-1.165-11.427-2.529-16.991-1.334-5.469-3.975-10.466-6.638-15.368-1.468-2.459-2.823-5.105-5.057-6.963-1.347-1.208-2.334-2.745-3.434-4.169l-.373 1.333c-4.299-5.053-7.525-10.907-10.651-16.74a196 196 0 0 0-9.799-15.822c-1.654-2.598-4.634-4.135-5.768-7.079-.905-2.204-2.178-4.222-3.005-6.452-.749-1.85-1.212-3.84-2.377-5.478-2.841-4.118-5.902-8.07-8.985-12.007-1.161-1.46-2.325-2.944-3.832-4.053-3.603-2.684-6.733-5.932-10.102-8.894-1.429-1.273-2.685-2.75-3.611-4.434 2.632.858 4.88 2.555 7.43 3.625-3.992-5.257-8.812-9.8-13.319-14.588 1.649-.442.61-1.499.259-2.252-2.126-3.29-5.347-5.91-9.032-7.192-.996-.429-2.052-.225-3.057-.035-.745-.264-1.455-.507-2.182-.753 1.758 2 3.793 3.74 5.559 5.741-4.386-2.593-8.43-5.754-12.916-8.188-2.676-1.273-5.43-2.381-8.093-3.68l-.429.93c-5.074-2.671-10.089-5.555-14.497-9.27 5.629.264 10.046 4.304 15.498 5.24 2.697.519 5.347 1.26 7.989 2.056-1.278-1.515-2.672-2.974-3.56-4.771-.918-1.81-1.714-3.794-3.308-5.114-7.98-6.487-16.718-12.45-26.682-15.23 1.624-.116 3.256-.138 4.889-.229-2.074-1.312-4.378-2.217-6.374-3.654-1.589-1.325-3.754-.832-5.638-.858-4.797.494-9.967.351-14.129 3.21.879.657 1.793 1.28 2.637 2-.307.303-.926.909-1.229 1.22 1.558.576 3.1 1.213 4.585 1.98-3.559.54-7.322-.148-10.691 1.376-7.668-.407-15.233 2.031-22.884 1.364 1.966-.918 4.196-.978 6.231-1.697-2.182.104-4.334.502-6.482.844l.208.442c-2.399-.268-4.733.645-7.123.355-3.715-.286-7.422.19-11.128.312-2.516.16-4.876 1.238-7.396 1.325 2.719-1.94 6.179-3.75 9.561-2.646 2.775.494 5.616-.23 8.3-.97 2.347-.589 4.798-.429 7.162-.896 4.14-.78 8.4-.065 12.505-1.07 3.218.022 6.287-1.55 9.509-.87-.515-1.84.398-3.542 1.901-4.55 2.957-2.205 6.595-3.439 10.249-3.69zM206.244 61.542c5.447-2.208 10.574-5.685 16.506-6.387-4.261 2.295-9.214 3.036-13.454 5.439-.965.48-1.909 1.372-3.048.948zM247.332 60.892c7.175-2.23 14.649-3.222 22.057-4.318 2.256-.16 4.651-.909 6.829.065-4.092.646-8.184 1.256-12.185 2.369-3.888.866-7.937.991-11.678 2.481-2.568 1.109-5.473.407-8.041 1.537-4.269 1.88-8.967 2.46-13.168 4.534-2.758.857-5.139 2.654-7.993 3.195-4.222 1.044-7.526 4.123-10.119 7.504-4.274 3.581-8.349 7.461-11.618 12.003-6.183 4.274-10.6 10.509-14.843 16.632-2.611 3.966-6.015 7.383-8.206 11.63-1.32 2.902-3.217 5.63-3.628 8.873-.546 2.567-.312 5.187-.243 7.785-.333 2.416-2.048 4.317-3.598 6.071-1.741 1.979-2.719 4.473-3.52 6.963-1.988 2.81-4.365 5.404-5.707 8.638-2.365 5.742-3.936 11.882-4.006 18.13-1.407 3.538-2.745 7.114-3.884 10.756-2.797 5.534-2.325 12.033-.991 17.909 4.776 4.915 7.794 11.401 9.037 18.139 4.347 4.143 6.893 9.746 8.621 15.44 4.568 2.642 5.72 8.349 8.824 12.281 1.087 1.307 2.737.013 4.006-.299 2.256-1.031 4.763-1.096 7.162-.606 1.662.454 3.36-1.118 4.932-.052 2.585 1.398 4.611 3.65 6.347 6.005 1.512 2.101 2.776 4.521 2.681 7.197 2.697 1.78 4.477 4.564 6.945 6.603 5.161-1.221 9.708 2.144 13.822 4.798 4.1-1.256 8.677-.507 12.219 1.918 2.836 2.447 6.556-.099 9.795.793 4.351 1.312 9.01.865 13.345 2.242 2.624 1.187 5.153 2.824 8.058 3.222 2.018-.117 4.079-.45 6.079.078 3.447 1.009 7.141 1.156 10.367 2.897 1.623.948 3.576.658 5.308 1.299 1.702.567 3.347 1.281 5.032 1.914 3.654-2.053 8.521-.784 11.929 1.307 1.862 1.083 1.264 3.287.745 4.967 3.498 1.299 7.192 1.901 10.907 2.031 5.227.809 10.522 1.338 15.666 2.619-4.131.507-8.478.299-12.366 1.992-3.486-.125-6.967-.822-10.466-.463-6.465 1.464-13.176.199-19.659 1.641-3.628.437-6.763 2.832-10.491 2.706-3.382-.086-6.582 1.425-9.951 1.26 2.828-1.446 6.404-.368 8.933-2.559 1.52-1.333 3.486-1.74 5.335-2.364 1.974-1.437 4.183-2.472 6.517-3.178.623-1.373 1.693-2.416 3.009-3.1-6.209-.845-12.029-3.378-18.286-3.954-3.728-.381-7.616-1.16-11.267.061.992.991 2.027 1.953 3.005 2.975-11.613-.702-23.165-2.204-34.787-2.763-3.07-.173-6.145-.191-9.189-.628 7.05-.199 13.709-2.975 20.689-3.793-3.953-1.697-8.218-1.853-12.392-2.494 3.113-.468 6.244.364 9.361.039 1.858-.204 3.72-.342 5.59-.463-6.672-1.36-13.323-2.819-20.009-4.105-8.573-2.027-15.761-7.587-23.971-10.57-1.728-.879-3.572.658-5.278-.173-3.114-1.247-5.898-3.174-8.743-4.915-2.684-1.81-5.585-3.377-7.785-5.798.567-.013 1.693-.026 2.26-.039-3.308-1.888-6.737-3.927-9.011-7.092-3.745-4.924-7.733-9.652-11.639-14.458.611 1.641 1.252 3.291 1.715 4.992-4.183-4.559-6.612-10.444-10.639-15.155-1.368-.242-2.693-.701-3.468-1.94-1.031-1.537-3.33-1.377-4.244-3.035-1.217-2.516-2.412-5.049-3.498-7.621-1.23-1.949-2.75-3.832-2.971-6.222-.567-2.482.879-4.815.637-7.284-.113-2.208.117-4.62 1.623-6.347 1.048-1.421 2.759-2.005 4.209-2.863 2.451-2.494 1.888-6.183 2.75-9.305.623-3.122 2.078-6.036 2.273-9.245.32-3.186 2.039-5.962 3.191-8.88 1.022-2.343 1.178-5.023 2.689-7.145 1.295-2.347 3.551-4.209 4.036-6.967.593-2.745 2.468-4.928 4.399-6.837.533-3.806 4.118-6.036 7.089-7.872-1.152-5.755 1.086-11.44 3.667-16.45 3.061-6.084 7.786-11.063 11.176-16.939 2.282-3.742 5.768-6.487 8.799-9.574 3.204-3.161 6.243-6.49 9.084-9.99 3.533-4.46 8.569-7.27 13.415-10.024 3.152-1.662 6.287-3.438 9.695-4.546 5.901-1.988 11.695-4.321 17.679-6.075zM171.092 89.838c10.509-10.73 22.227-20.373 35.221-27.851-1.442 1.268-2.918 2.494-4.3 3.828-3.009 3.113-7.573 3.827-10.634 6.88-8.232 7.734-17.632 14.484-23.933 24.062-3.55 4.408-7.127 8.981-8.738 14.527-.939 2.408-1.844 4.828-2.325 7.392-1.199 1.446-2.892 2.542-3.481 4.434-1.321 3.957-2.841 7.92-3.23 12.115-.468 3.365-.65 6.79-1.481 10.102a120 120 0 0 0-1.317-1.359c-.259-2.919.295-5.798.633-8.678-1.23-7.82 1.472-15.709 5.1-22.525 1.291-1.94 2.503-4.884 5.266-4.62 4.204-6.239 8.067-12.8 13.219-18.307M118.972 74.154a37.6 37.6 0 0 1 9.115-7.655c-1.212 1.723-2.724 3.221-3.78 5.061-1.022 1.802-2.945 2.724-4.508 3.958-2.879 1.931-5.031 4.698-7.296 7.283-.823.793-.732 1.953-.736 3.014-3.035 3.113-5.833 6.46-8.89 9.565-4.286 4.75-7.37 10.479-10.093 16.259.143-3.806 1.992-7.183 3.382-10.634 2.04-2.845 2.814-6.322 4.118-9.526.957-2.044.519-4.65 2.23-6.348 1.022-1.36 2.71-1.78 4.325-1.698 1.39-2.416 3.317-4.55 5.703-5.984.875-.718 1.953-.454 2.966-.29 1.256-.87 2.468-1.836 3.469-3.01zM138.28 98.214c2.451-2.092 4.815-4.317 7.521-6.084-1.251 2.152-2.594 4.282-4.546 5.854-1.962 1.65-2.464 4.594-4.85 5.768-3.858 2.347-6.764 5.945-9.128 9.76-2.347 3.715-5.824 6.525-8.054 10.318-2.403 3.828-5.902 6.781-8.391 10.552-2.079 3.083-4.802 5.868-5.798 9.561-.814 2.581.866 5.24-.091 7.807-1.823 5.443-5.179 10.57-5.019 16.528.126 1.741-.545 3.373-1.03 5.01-.75 2.459-.875 5.088-1.806 7.504a46.8 46.8 0 0 0-2.23 8.539c-.645 4.858-2.091 9.634-1.78 14.583-.103 3.932 1.481 7.574 2.867 11.159 2.607 6.59 6.27 12.674 9.322 19.048 2.131 4.382 5.915 7.707 7.912 12.141-3.924-1.221-7.496-3.36-10.856-5.685 2.425 5.014 4.477 10.414 8.4 14.462 1.408 1.641 2.295 3.78 4.179 4.967 1.792 1.134 3.499 2.442 4.811 4.148-3.01-.818-5.69-2.624-8.803-3.087-2.105-.312-4.157-.996-5.915-2.209-3.044-2.204-6.478-3.914-8.933-6.85a14.05 14.05 0 0 1-6.006-3.113c-4.438-3.776-8.127-8.513-10.57-13.848-2.9 1.256-5.499-.978-7.46-2.888-4.313-4.438-7.612-10.037-8.751-16.198-2.772-4.802-2.992-10.696-1.823-16.022.454-1.615.957-3.589 2.62-4.33 2.23.429 2.49 3.239 3.282 5.01 1.9 6.712 5.256 12.835 8.716 18.823a75 75 0 0 0 6.183 8.994 41 41 0 0 1-2.77-13.294c-4.504-3.291-5.435-9.231-6.093-14.427-.243-4.136-.693-8.552 1.1-12.419.636.507 1.268 1.031 1.9 1.559 1.819-3.871 2.97-8.375 6.27-11.284 1.72-1.589 4.092-.754 6.145-.728 1.675-.615 3.148-1.671 4.763-2.416 1.087-2.923 1.009-6.036.54-9.067-.164-6.989.594-14.25 3.69-20.594.606-1.892.204-3.983.849-5.884.996-3.317 2.762-6.768 5.876-8.479 1.576-.944 2.723.754 3.771 1.655 1.394-1.854 2.62-3.828 3.988-5.703 1.455-2.027 3.443-3.624 4.698-5.807 5.482-9.123 13.272-16.515 21.3-23.326z"/><path fill="#abfcff" d="M524.577 146.133c-2.758-4.209-7.305-6.612-11.007-9.838 1.94.563 3.793 1.463 5.244 2.931a148.8 148.8 0 0 1 19.32 20.763c3.547 4.702 6.89 9.621 9.306 15.025 1.589 3.503 2.191 7.344 3.109 11.059 1.623 6.764 2.94 13.614 3.637 20.546.662.918 1.871 1.256 2.706 2.031.611 2.39-.931 4.967.377 7.231 2.62 5.478 1.909 12.081-.745 17.407-4.04 8.682-11.851 14.766-19.888 19.433-1.42.706-1.281 2.624-2.364 3.668-3.2 3.438-7.456 5.681-11.786 7.283-2.581.844-5.374 1.823-8.08.983.004-.468.026-1.407.034-1.879-3.511 1.688-7.252 3.195-11.188 3.247 1.831-2.308 4.412-3.827 6.287-6.088-3.252.918-6.313 2.429-9.643 3.04-3.871.771-7.578 2.329-11.54 2.62-1.559.199-3.295-.035-4.555 1.095-4.092 2.945-8.608 5.252-13.311 7.006-2.204.602-3.416 2.724-5.265 3.919-6.014 4.282-13.362 6.109-20.589 6.789-6.66.641-13.307 3.352-20.022 1.949-5.318 1.628-10.93 1.888-16.394 1.147-9.669 1.918-19.576 1.767-29.354 1.074 8.531-1.182 17.104-2.416 25.379-4.897 4.157-1.654 8.465-3.334 12.994-3.373 3.049.606 6.456 1.55 9.258-.403 1.923-1.637 4.469-2.087 6.915-1.641 2.992.818 5.655-1.143 8.556-1.49 2.282-.532 4.625-.147 6.811.62 3.291-1.893 6.816-4.136 10.778-3.642 2.559.628 4.495-1.407 6.469-2.667 2.386-1.741 5.036-3.174 7.088-5.344 3.564-3.602 8.184-6.144 13.168-6.975 2.646-.312 2.927-3.417 2.888-5.543 1.226-1.061 2.65-1.875 3.806-3.013.875-1.308 1.295-3.001 2.733-3.841 3.061-1.931 6.555-3.451 10.193-3.702 1.151-.117 1.667 1.004 2.247 1.788 2.879-4.321 8.76-4.209 13.077-2.503 1.831.628 2.94 2.295 4.053 3.789 3.173-1.286 6.56-1.364 9.898-1.533 5.101-2.81 7.924-8.4 12.484-11.908 1.086-1.03 2.299.286 3.329.715 2.313-2.832 2.663-6.612 3.049-10.115 1.636-4.75.645-9.955-.078-14.817-.204 1.688-.425 3.377-.645 5.074l-.217-.034a43.6 43.6 0 0 0-1.909-10.47c-.412-9.423-1.901-19.083-6.413-27.453-.983-3.165-2.88-5.867-4.69-8.578-2.039-5.036-5.46-9.318-9.114-13.237-2.217-2.334-4.556-4.572-6.387-7.244zM350.072 141.046c1.113-.277 2.221-.576 3.334-.866 4.971 2.472 9.05 6.451 12.691 10.617 4.114 4.646 6.067 10.756 7.232 16.766.61 2.888-.156 5.88.506 8.755.572 2.772.013 5.595.087 8.392.021 2.485 2.312 4.209 2.412 6.69.247 3.732-1.122 7.296-1.884 10.886-.515 2.433.299 5.118-.979 7.382-1.991 3.75-4.611 7.431-8.456 9.384-1.927 2.624-3.629 5.477-6.127 7.633-3.126 4.941-6.647 9.89-11.514 13.224-3.706 1.516-6.157 4.915-9.651 6.79-2.256 1.351-4.971 1.412-7.318 2.555-3.265 1.459-6.612 2.823-9.574 4.875-.953.741-2.208.706-3.321.949-3.178.467-6.296 1.42-9.522 1.463.957-1.524 2.737-2.005 4.296-2.646 4.905-1.848 10.006-3.429 14.375-6.447 2.066-1.407 3.663-3.373 5.525-5.023 2.23-2.026 5.166-2.949 7.526-4.797 5.335-4.04 9.76-9.137 14.146-14.181 2.52-3.733 5.422-7.18 8.171-10.735 1.368-1.589-.06-3.641.23-5.456.398-2.758 2.308-4.897 4.1-6.863-.532-.948-1.225-1.905-1.095-3.057.021-4.356 1.628-8.465 2.758-12.6.481-1.576-.234-3.148-.502-4.689-.914-4.538-1.832-9.249-.862-13.861.286-1.814.827-3.776.074-5.534-1.663-3.841-4.335-7.106-6.067-10.899-1.987-4.408-6.69-6.425-10.595-8.707z"/><path fill="#abfcff" d="M416.429 142.241c1.347.97 1.52 2.619 1.784 4.135 1.641 2.182 2.611 4.789 3.244 7.435 1.454 6.01 1.571 12.28 1.073 18.42.022 8.041-2.308 15.926-5.681 23.139-1.177 2.165.581 4.309.412 6.535-.165 3.121-1.434 6.044-1.784 9.132-.312 2.281 1.19 4.507.389 6.754-1.294 3.928-4.026 7.171-6.837 10.094-2.736 2.407-5.165 5.365-8.638 6.703-.347-.286-1.022-.845-1.364-1.13-2.022 1.563-3.811 3.39-5.781 5.009-2.269-1.952-4.958.009-6.928 1.421-2.325 1.55-3.654 4.321-6.27 5.469-2.503 1.186-5.036 2.346-7.707 3.108-1.91.589-3.204 2.243-4.75 3.43-2.711 2.377-5.781 4.261-8.699 6.348-4.062 4.118-9.202 8.279-15.255 8.123-6.638 1.407-12.744 4.923-19.576 5.495-6.4.74-12.813 1.45-19.234 1.892 4.325-1.663 8.907-2.468 13.47-3.139 3.127-1.022 6.366-1.438 9.643-1.537 4.27-1.81 8.375-4.816 13.242-4.426 2.953-3.347 6.244-6.46 10.158-8.612 5.603-2.91 11.202-5.854 16.649-9.046 3.72-2.862 8.045-4.884 11.462-8.153 1.602-1.351 1.961-3.616 3.472-5.036 2.685-2.598 6.075-4.421 9.665-5.33 2.503-3.062 5.824-5.326 9.461-6.768 1.347-2.014 3.369-3.607 4.036-6.032a25.8 25.8 0 0 1 4.624-8.491c-.697-.767-1.779-1.412-1.779-2.572-.039-3.958 3.018-6.881 4.607-10.219-.048-4.283 1.377-8.314 2.784-12.28.351-2.862 2.079-5.214 2.979-7.877.334-4.135-.229-8.279-.281-12.409.385-2.421.9-4.95.164-7.357-1.255-3.98-2.663-7.998-2.758-12.228zM32.683 192.742c.775-2.052 2.32-3.715 3.282-5.685-1.845 5.174-1.533 10.76-1.524 16.164.242 5.291.757 10.647 2.455 15.692.84 2.598 1.64 5.3 1.442 8.075-.13 2.196-1.1 4.335-.684 6.565.558 3.767 1.498 7.469 2.364 11.176 4.144.632 6.534 4.724 8.439 8.101 1.303 2.057 1.03 4.746 2.117 6.803 3.335 1.16 6.747 2.182 10.198 2.909 5.824.641 10.548 5.547 12.262 11.025 2.624 1.069 4.443 3.325 6.249 5.438 1.368 1.763 3.94.918 5.715 2.027 3.715 2.052 7.513 4.434 10.033 7.95-5.335-1.256-10.25-3.828-15.285-5.932-6.547-3.222-13.536-5.396-20.07-8.652-4.39-2.156-8.972-4.65-11.678-8.933 2.104.139 4.14.741 6.21 1.087-3.694-3.412-8.275-5.581-12.393-8.379-2.763-2.039-5.127-4.594-7.206-7.322-2.84-4.395-6.685-8.915-5.94-14.566.13-3.611 3.689-5.43 4.724-8.643.952-1.433.164-3.109.047-4.65-.034-2.46-1.848-4.499-1.16-7.032-1.238-1.78-1.19-4.04-1.243-6.119.17-5.728.784-11.44 1.65-17.095zM304.68 193.221c2.126.355 4.065 1.286 5.884 2.442 2.282.104 3.2 2.433 4.759 3.741.026-.823 0-1.611.039-2.421 4.157 3.456 6.746 8.405 8.85 13.328 2.559 5.898 2.092 12.67.308 18.724 2.299 1.42 1.888 4.273.584 6.269-2.611 4.058-4.802 8.544-8.582 11.661-4.559 1.689-7.655 5.833-12.154 7.643-3.334 1.472-6.547 3.373-10.185 3.966-2.983.463-5.572 2.165-8.478 2.884-3.537.68-7.075 1.411-10.66 1.801 2.351.264 4.732.403 7.023 1.031-5.226 1.611-10.726 1.723-16.095 2.494-2.645.286-5.005 1.905-7.707 1.814-3.114.048-6.197-.541-9.219-1.221-3.442-.844-7.071-.45-10.444-1.611 5.525-.796 11.254-.186 16.636-1.9-.606-1.009-1.29-1.966-1.953-2.923-6.958-1.412-13.527-4.166-20.277-6.301-2.594-.74-4.841-2.433-6.192-4.802 6.001 1.351 12.041 2.711 17.709 5.192 4.205 1.875 8.678 3.109 12.718 5.356 2.693 1.823 6.114.477 8.972 1.932 5.165-1.183 10.249-2.737 15.475-3.651 2.906-.562 5.885-.753 8.73-1.589 4.464-1.338 8.595-3.94 11.587-7.582 1.754-2.178 3.728-4.191 6.053-5.746 2.3-1.714 5.257-3.109 6.171-6.088 1.134-3.195 2.97-6.096 3.962-9.348.783-2.196-.533-4.356-.494-6.565-.139-2.961 1.511-5.646 1.498-8.582-.706-2.871-3.005-4.914-4.507-7.357-.585-1.714 1.048-4.117-.927-5.312-3.174-2.252-6.785-3.984-9.084-7.271zM468.291 207.987c-.598-5.33 1.654-10.327 3.914-14.977-.32 3.416.351 6.902-.493 10.275-1.265 5.464-2.105 11.124-4.43 16.264-.546 1.433-1.706 2.433-2.932 3.264 1.109-2.749 2.261-5.49 3.174-8.313-.952 1.433-2.169 2.637-3.278 3.944-1.264 4.105-2.918 8.154-5.468 11.631-2.694 3.429-6.495 5.655-9.743 8.474 2.572-1.044 4.993-2.46 7.547-3.555-3.022 3.793-6.837 6.906-11.007 9.323-9.431 4.148-18.351 9.599-28.201 12.76-3.365.303-6.547 1.459-9.86 2.044 1.304-1.269 2.849-2.226 4.235-3.39-3.494.796-5.941 3.801-9.375 4.814-3.364.949-6.261 3.248-9.811 3.53-3.348.428-7.089.112-9.834 2.472a22.5 22.5 0 0 1-4.14 3.611c.005.425.022 1.26.026 1.676-3.468 2.957-8.127 3.399-12.245 4.889-3.598 1.195-7.37 1.641-11.059 2.394-2.221 2.771-5.785 3.65-8.967 4.785-10.466 2.845-21.222 5.919-32.181 4.689 5.507-1.32 11.258-2.165 16.263-5.014 3.72-1.628 7.27-3.715 11.15-4.923 4.503.117 8.66-1.741 12.804-3.265 3.416-1.377 6.426-3.845 10.08-4.56 3.547.269 6.76-1.364 9.786-3 3.296-1.308 6.786-2.118 10.029-3.581 1.494-.819 2.559-2.304 4.196-2.888 2.39-1.2 5.369-.52 7.551-2.265 3.642-2.546 7.638-4.564 11.886-5.867 3.408-2.494 7.149-4.75 11.388-5.357 3.239-.225 6.456-.935 9.721-.627 2.26.303 3.642-1.81 5.296-2.962.333-2.005.918-4.027 2.299-5.569 1.667-2.333 4.555-3.174 6.43-5.291 2.784-2.139 5.967-5.148 9.747-4.191 1.217-3.057 3.057-5.798 5.149-8.305-1.338-3.612 1.19-7.357 4.139-9.236 2.126-1.122 4.296-2.204 6.205-3.703zM491.686 225.996c3.087-4.507 7.192-8.084 11.232-11.665-1.987 4.798-5.837 8.474-9.587 11.89-2.243 3.083-5.624 4.911-8.599 7.141-2.027 1.532-4.243 2.771-6.417 4.053-2.234 1.299-4.296 2.935-6.72 3.879 2.074-2.81 3.096-6.499 6.191-8.43 1.966-1.685 4.829-1.334 6.773-3.027 2.13-1.715 4.598-2.875 7.127-3.832zM567.441 242.201c1.472-3.061 6.4-5.01 8.772-1.866 5.058-.996 9.873 3.455 10.453 8.4.091 2.403-.39 4.785-.416 7.192-.402 3.767-4.996 4.538-6.17 7.933-1.134 3.009-3.382 5.681-6.495 6.642-3.126.173-5.897 1.815-8.98 2.239-2.915 1.095-5.625 2.71-8.635 3.555-2.693.892-5.637.489-8.274 1.598-5.616 2.143-11.163 4.797-17.182 5.555-7.062 1.057-13.813 4.135-21.009 4.144 7.049-3.59 14.609-6.131 22.07-8.708 4.811-1.108 9.318-3.087 13.795-5.131-.324-1.035-.45-2.152.412-2.931 2.377-2.75 6.032-4.512 9.691-4.01 3.628-2.849 8.127-4.053 12.583-4.737a30.8 30.8 0 0 1 6.863-4.884c-1.91-1.221-4.192-2.321-5.075-4.581-.953-2.1.1-4.331.411-6.439-1.108-1.096-3.637-1.979-2.801-3.967zM144.939 258.359c1.702 1.489 3.036 3.347 4.235 5.27 1.377 2.368 4.062 3.334 6.261 4.719 1.806 1.005 3.226 2.607 5.127 3.464 6.274 3.049 12.458 6.296 18.688 9.444 4.118 2.39 8.816 3.36 13.311 4.75 4.347.503 8.66 1.49 12.765 3.023-9.11-.884-18.017-3.568-27.197-3.932-6.261.199-11.903-3.425-18.121-3.525-5.045 1.338-10.059-.666-15.034-1.394-4.633-1.121-9.526-.377-14.068-1.918-2.672-.871-5.361-1.879-7.617-3.611-1.407-1.031-1.914-2.932-3.434-3.82-2.546-.918-5.347-.809-7.837-1.94-3.65-1.55-7.348-3.199-10.405-5.797 4.196.29 8.231 1.55 12.284 2.598.424-.377 1.269-1.13 1.693-1.503 2.191.186 4.365.706 6.309 1.775.294-.809.178-1.978 1.139-2.307 2.282-1.1 4.746.593 6.118 2.39 1.676 1.948 2.001 4.564 2.971 6.863a19.7 19.7 0 0 0 4.399 2.044c1.52.06 2.966-.654 4.49-.615 7.201-.126 13.757 3.602 20.867 4.161-1.845-1.892-3.239-4.218-5.37-5.811-1.862-1.628-4.243-2.771-5.512-4.992-1.896-3.196-4.248-6.084-6.057-9.332zM596.741 280.654c4.001-2.226 8.491-3.36 12.492-5.603-1.571 2.139-3.962 3.351-5.888 5.092-3.746 4.56-9.695 5.958-14.909 8.058-3.537.983-7.253 1.148-10.825 1.927-6.313 2.204-12.994 2.698-19.528 3.858-3.278.606-6.595.243-9.851-.229-2.17-.429-3.962 1.169-5.924 1.727-4.559.239-9.102.628-13.605 1.377-4.906.277-9.794.671-14.679 1.156 3.174-1.641 6.651-2.606 10.154-3.247 2.992-.554 6.028 0 9.046.022 3.07-.087 5.962-1.425 9.024-1.598 1.675-.944 3.277-2.269 5.269-2.429 5.668-.646 11.397-.355 17.065.138 2.325.165 4.676.719 7.01.312 1.442-1.018 2.546-2.607 4.339-3.027 4.824-1.268 9.955-.68 14.727-2.217 2.788-.757 3.572-4.096 6.088-5.317zM11.145 280.997c3.625-1.685 7.487-3.954 11.618-3.122-1.74 1.411-3.759 2.468-5.937 2.988-5.044 1.208-9.283 4.468-13.176 7.785-1.308 1.074.195 2.793 1.126 3.555 2.996 1.108 5.993 2.251 8.786 3.841 4.468.29 8.902 1.987 12.18 5.131-7.344-2.139-15.051-3.161-22.057-6.374-2.053-.931-4.638-3.035-3.322-5.582 2.464-3.957 6.85-6.075 10.787-8.227zM115.214 292.351c4.85.403 9.669 1.585 14.021 3.828 3.407 2.07 7.707.628 11.189 2.494 1.416.732 2.017 2.858 3.819 2.737 3.897.099 7.807-.239 11.691.212 7.27.844 14.726-.858 21.914.831-4.248.186-8.517.191-12.765.009-4.572-.325-9.14.545-13.722.199-8.153-.706-16.389-1.814-24.023-4.962-3.364-.81-6.313-2.659-9.578-3.733-.978-.312-1.797-.931-2.542-1.61zM496.115 301.1c3.785-.29 8.197.896 11.284-1.987.503-.022 1.499-.061 2.001-.078-2.247 1.009-4.438 2.139-6.469 3.542-1.914 1.074-4.222.944-6.3 1.502-4.257.896-8.622.264-12.921.277-4.127-.086-8.245.368-12.367.104-6.248-.671-12.362 1.836-18.61.754 14.349-2.343 28.864-3.581 43.382-4.118zM362.308 303.933c3.369-2.056 7.941-3.78 11.574-1.398-3.91-.022-7.707 1.004-11.574 1.398M39.576 303.824c1.914-1.295 4.13-.264 6.157.117 7.695 1.931 15.68 1.697 23.534 2.238 8.491.455 16.97 1.2 25.465 1.46 7.63.437 15.389.476 22.811 2.528 3.178 1.083 6.469-.199 9.691-.45 7.785-.909 15.938-2.169 23.581.251 4.529-.74 9.084-1.312 13.683-1.502a74 74 0 0 1 25.413.541c1.057.139 1.897.823 2.789 1.373-4.166.97-8.479.268-12.61-.529-4.594-.948-9.201.438-13.76.884-4.322.667-8.691.225-13.038.489-3.486.251-6.985-.701-10.453-.022-3.849.719-7.729-.402-11.6 0-4.127.533-8.271-.19-12.414.074-5.01.264-9.994-.628-15.008-.468-4.62.256-9.063-1.515-13.679-1.307-6.387.718-12.518-1.88-18.87-2.001-4.019-.368-7.825 1.576-11.847 1.135-3.036-.33-6.184-.355-9.072-1.49-3.533-1.321-7.305-1.862-10.786-3.317zM385.193 304.154c2.983-.996 6.183-1.117 9.271-.606 7.859 1.03 15.891 1.056 23.603 3.061-3.538-.407-7.05-1.459-10.635-1.005-2.862.239-5.59 1.2-8.426 1.564-4.828.13-9.691.632-14.337 2.017-3.096.823-6.326.628-9.474 1.044-3.694.29-7.374 1.043-11.085.753 3.191-1.26 6.737-1.108 10.072-1.792 3.745-.035 7.395-1.299 11.154-.918 1.533.104 2.979-.507 4.429-.905 2.893-.883 5.915-1.096 8.89-1.572-4.321-1.689-9.05-.554-13.471-1.641z"/></svg>