<svg xmlns="http://www.w3.org/2000/svg" width="31" height="27" fill="none" viewBox="0 0 31 27"><g fill-rule="evenodd" clip-path="url(#a)" clip-rule="evenodd"><path fill="#cdbdb2" d="m8.67 24.517 3.9 1.035v-1.354l.319-.318h2.229v2.706h-2.389l-2.945-1.273z"/><path fill="#cdbdb2" d="m21.408 24.517-3.82 1.035v-1.354l-.319-.318H15.04v2.706h2.388l2.945-1.273z"/><path fill="#393939" d="m12.89 21.57-.318 2.628.398-.319h4.14l.477.319-.319-2.627-.636-.398-3.184.08z"/><path fill="#f89c35" d="m10.74 3.82 1.91 4.458.876 12.975h3.105l.955-12.975 1.75-4.458z"/><path fill="#f89d35" d="M2.383 13.612.154 20.059l5.572-.318h3.582v-2.786l-.16-5.731-.795.636z"/><path fill="#d87c30" d="m6.604 14.327 6.527.16-.717 3.342-3.104-.796z"/><path fill="#ea8d3a" d="m6.604 14.407 2.706 2.547v2.548z"/><path fill="#f89d35" d="m9.31 17.034 3.185.796 1.034 3.423-.716.398-3.502-2.07z"/><path fill="#eb8f35" d="m9.307 19.581-.637 4.935 4.219-2.945z"/><path fill="#ea8e3a" d="m13.13 14.486.398 6.766-1.194-3.462z"/><path fill="#d87c30" d="m5.646 19.66 3.662-.079-.637 4.935z"/><path fill="#eb8f35" d="m1.905 26.666 6.766-2.15-3.024-4.855-5.493.398z"/><path fill="#e8821e" d="M12.653 8.278 9.23 11.144l-2.626 3.184 6.527.239z"/><path fill="#dfcec3" d="m8.67 24.516 4.219-2.945-.319 2.547v1.433l-2.865-.557zM21.408 24.516l-4.139-2.945.318 2.547v1.433l2.866-.557z"/><path fill="#393939" d="m11.376 15.919.876 1.83-3.104-.795z"/><path fill="#e88f35" d="m1.826.08 10.826 8.198L10.82 3.82z"/><path fill="#8e5a30" d="M1.825.08.393 4.456l.796 4.776-.558.318.796.717-.636.557.875.796-.557.478 1.274 1.592 5.97-1.831q4.376-3.503 4.298-3.582-.08-.08-10.826-8.199"/><path fill="#f89d35" d="m27.695 13.612 2.229 6.447-5.572-.318H20.77v-2.786l.16-5.731.795.636z"/><path fill="#d87c30" d="m23.475 14.327-6.527.16.716 3.342 3.104-.796z"/><path fill="#ea8d3a" d="m23.475 14.407-2.707 2.547v2.548z"/><path fill="#f89d35" d="m20.768 17.033-3.184.796-1.035 3.423.716.398 3.503-2.07z"/><path fill="#eb8f35" d="m20.768 19.581.636 4.935-4.139-2.865z"/><path fill="#ea8e3a" d="m16.948 14.487-.398 6.766 1.194-3.462z"/><path fill="#d87c30" d="m24.432 19.66-3.662-.079.637 4.935z"/><path fill="#eb8f35" d="m28.173 26.666-6.766-2.15 3.025-4.855 5.492.398z"/><path fill="#e8821e" d="m17.425 8.278 3.423 2.866 2.627 3.184-6.527.239z"/><path fill="#393939" d="m18.702 15.92-.876 1.83 3.105-.795z"/><path fill="#e88f35" d="M28.252.08 17.427 8.277l1.83-4.458z"/><path fill="#8e5a30" d="m28.249.08 1.433 4.377-.796 4.776.557.318-.796.717.637.557-.876.796.557.478-1.273 1.592-5.97-1.831q-4.379-3.503-4.299-3.582.08-.08 10.826-8.199"/></g><defs><clipPath id="a"><path fill="#fff" d="M.072 0h30v26.745h-30z"/></clipPath></defs></svg>