<svg xmlns="http://www.w3.org/2000/svg" width="1440" height="980" fill="none" viewBox="0 0 1440 980"><path fill="#76eaff" d="m0 980 706-406-130-86 864-468V0H0z"/><path fill="#753434" d="m0 980 706-406-130-85.999 864-468-704.72 469.506 129.529 85.114z"/><mask id="b" width="1440" height="961" x="0" y="20" maskUnits="userSpaceOnUse" style="mask-type:alpha"><path fill="url(#a)" d="m0 980 706-406-130-85.999 864-468-704.72 469.506 129.529 85.114z"/></mask><g mask="url(#b)"><path fill="#00aece" d="M1440 20 576 488.001v75.839L1440 95z"/><path fill="#009dba" d="M1478 57 603 533v183.5l882-478.571z"/><path fill="#b2f3ff" d="M706 574 0 980v62l706-342.5z"/><path fill="#62d3e8" d="M706 623 0 1029v62l706-342.5z"/><path fill="#b06d00" d="M864.809 574.621 735.28 489.507l.001 191.994z"/></g><defs><linearGradient id="a" x1="739" x2="1183" y1="229" y2="800.5" gradientUnits="userSpaceOnUse"><stop stop-color="#34e2d9"/><stop offset=".547"/></linearGradient></defs></svg>