<svg xmlns="http://www.w3.org/2000/svg" width="1440" height="1000" fill="none" viewBox="0 0 1440 1000"><path fill="#bababa" d="m0 980 706-406-130-86 864-468-704.72 469.506 129.529 85.115z"/><mask id="b" width="1440" height="960" x="0" y="20" maskUnits="userSpaceOnUse" style="mask-type:alpha"><path fill="url(#a)" d="m0 980 706-406-130-86 864-468-704.72 469.506 129.529 85.115z"/></mask><g mask="url(#b)"><path fill="#00b7aa" d="M1440 20 576 488l-15 276.5L1440 287z"/><path fill="#e0be57" d="M1478 57 603 533l-4 268.5L1478 324z"/><path fill="#03e5d6" d="M706 574 0 980v62l706-342.5z"/><path fill="#ffe082" d="M706 623 0 1029v62l706-342.5z"/><path fill="#b06d00" d="M864.809 574.621 735.28 489.506V710.5z"/></g><path fill="url(#c)" d="m0 980 706-406-130-86 864-468v-282H0z"/><mask id="d" width="1440" height="1243" x="1" y="-262" maskUnits="userSpaceOnUse" style="mask-type:alpha"><path fill="#f0bf6c" d="m1 980 706-406-130-86 864-468v-282H1z"/></mask><g mask="url(#d)"><path fill="#ffe082" d="M2013.1 115.733-15.572 1287v-240.84L2013.1-125.103z"/><path fill="#03e5d6" d="M2013.1 33.99-15.572 1205.19v-159.03L2013.1-125.103z"/><path fill="#ffecb3" d="M2013.1-125.103-15.572 1046.16-1247 335.179 781.677-836.088z"/><path fill="#03e5d6" d="M253.595 573.914c-131.845 76.905-356.639-39.089-449.141 52.394-85.053 84.163-174.117 158.393-235.87 179.72L-15.635 1046.1 2013.04-125.167 1441.1-455.385c3.82 69.52-142.61 373.764-315.9 502.744-198.053 147.507-593.717 57.615-660.881 199.965-62.326 131.973-123.57 275.723-210.788 326.59z"/><path fill="#fff" d="M2013.11-125.103-15.572 1046.16l-519.87-300.166s165.651-77.796 279.734-179.656c94.349-84.29 347.726-1.655 475.943-76.395 84.862-49.466 106.189-244.274 184.113-323.662C560.703 7.061 859.027 75.817 1051.67-67.616c212.32-158.074 288.14-446.212 288.14-446.212l673.36 388.789z" opacity=".3"/><path fill="#fff" d="M220.172 489.879c-128.217 74.804-406.805-26.547-501.153 57.806-114.084 101.924-254.46 198.309-254.46 198.309s165.65-77.796 279.734-179.656c94.348-84.289 347.726-1.655 475.942-76.395zM404.284 166.218C560.64 6.998 858.964 75.753 1051.61-67.679 858.964 75.753 535.939-9.937 379.583 149.284c-77.923 79.387-74.549 291.066-159.411 340.595 84.862-49.466 106.189-244.274 184.112-323.661" opacity=".6"/><path fill="#4cffd8" d="M2013.11-125.103-15.571 1046.16l-505.1-291.635s173.417-64.172 318.632-147.188c109.818-62.835 291.575-22.664 419.792-97.468 84.862-49.466 182.266-197.927 233.387-296.668 71.048-137.13 352.055-68.374 687.88-291.066 220.59-146.297 267-397.701 267-397.701l607.09 350.527z" opacity=".5"/></g><path fill="#cddc39" d="M238.465 26.224c47.77-27.947 76.717-11.67 168.675-43.47 74.458-25.77 89.511-80.375 144.86-97.206L0-114.5l.101 309c5.749-3.26 13.332-7.495 23.94-13.37 40.337-22.341 108.814-37.676 148.694-51.204 39.907-13.529 30.59-83.14 65.73-103.702"/><path fill="#fff" fill-opacity=".4" fill-rule="evenodd" d="M-52.835 852.996c-.743.068-1.925-.78-2.642-1.891-.717-1.115-.694-2.074.048-2.141 59.256-5.301 105.635-17.496 147.687-36.752 42.085-19.275 79.848-45.621 121.842-79.218 21.66-17.329 40.271-32.117 56.854-44.684 16.65-12.622 31.277-23.026 44.913-31.539 7.692-4.804 15.092-9.208 22.367-13.192 7.262-3.972 14.341-7.494 21.38-10.521.605-.264 1.775.402 2.611 1.486.836 1.09 1.026 2.182.421 2.45-7.062 3.034-14.106 6.535-21.295 10.467-7.179 3.93-14.568 8.33-22.304 13.161-13.691 8.548-28.286 18.923-44.842 31.474-16.623 12.601-35.213 27.37-56.833 44.668-42.075 33.655-79.903 60.051-122.062 79.357-42.194 19.327-88.716 31.561-148.145 36.875M986.165 129.996c-.743.068-1.925-.78-2.642-1.891-.717-1.115-.693-2.074.048-2.141 59.259-5.301 105.639-17.496 147.689-36.752 42.08-19.275 79.85-45.62 121.84-79.218 21.66-17.329 40.27-32.117 56.85-44.683 16.65-12.623 31.28-23.027 44.92-31.54 7.69-4.804 15.09-9.208 22.36-13.192 7.27-3.972 14.34-7.494 21.38-10.521.61-.264 1.78.402 2.62 1.486.83 1.09 1.02 2.182.42 2.45-7.07 3.034-14.11 6.535-21.3 10.467-7.18 3.93-14.57 8.33-22.3 13.161-13.69 8.548-28.29 18.923-44.84 31.474-16.63 12.601-35.22 27.37-56.84 44.668-42.07 33.655-79.9 60.051-122.06 79.357-42.19 19.327-88.72 31.561-148.145 36.875M60 842.979c85.847-30.902 95.079-44.659 122.117-67.288 25.126-21.026 31.34-13.735 23.363-.044s6.716 17.788 26.474-11.601c10.644-15.839 28.838-30.262 36.748-27.762 21.467 6.791-15.921 42.633-52.282 62.338C178.544 819.148 93.45 843.821 60 842.979M1099 119.979c85.85-30.902 95.08-44.66 122.12-67.288 25.12-21.027 31.34-13.735 23.36-.044s6.72 17.788 26.47-11.601c10.65-15.84 28.84-30.262 36.75-27.762 21.47 6.791-15.92 42.633-52.28 62.338-37.88 20.526-122.97 45.199-156.42 44.357" clip-rule="evenodd"/><path fill="#99fff0" fill-rule="evenodd" d="M481.068 712a6.069 6.069 0 1 0 .002 12.136 6.069 6.069 0 0 0-.002-12.136" clip-rule="evenodd"/><path fill="#fff" fill-rule="evenodd" d="M484.431 713.755c.01.008.025.023.034.029.568.502.922.971 1.241 1.663.311.756.4 1.371.364 2.186-.052.429-.457 2.411-1.03 2.445-.205-.136-.273-1.93-.357-2.373-.104-.56-.241-.969-.536-1.456a4.3 4.3 0 0 0-.934-1.049c-1-.807-1.381-.745-.889-1.608.476-1.104 1.094-.601 2.107.163" clip-rule="evenodd"/><path fill="#99fff0" fill-rule="evenodd" d="M497.402 726.59a4.496 4.496 0 1 0 0 8.992 4.496 4.496 0 0 0 0-8.992" clip-rule="evenodd"/><path fill="#fff" fill-rule="evenodd" d="m499.892 727.889.025.022c.422.373.684.719.92 1.231.231.562.297 1.016.27 1.619-.038.319-.339 1.787-.763 1.814-.151-.102-.203-1.431-.265-1.758a2.95 2.95 0 0 0-.398-1.08 3.2 3.2 0 0 0-.675-.761c-.002-.004-.014-.014-.017-.017-.742-.597-1.023-.551-.659-1.19.354-.818.813-.446 1.562.12" clip-rule="evenodd"/><path fill="#99fff0" fill-rule="evenodd" d="M578.068 290a6.069 6.069 0 1 0 .002 12.136 6.069 6.069 0 0 0-.002-12.136" clip-rule="evenodd"/><path fill="#fff" fill-rule="evenodd" d="M581.431 291.755c.01.008.025.023.034.029.568.502.922.971 1.241 1.663.311.756.4 1.371.364 2.186-.052.429-.457 2.411-1.03 2.445-.205-.136-.273-1.93-.357-2.373-.104-.56-.241-.969-.536-1.456a4.3 4.3 0 0 0-.934-1.049c-1-.807-1.381-.745-.889-1.608.476-1.104 1.094-.601 2.107.163" clip-rule="evenodd"/><path fill="#99fff0" fill-rule="evenodd" d="M594.402 304.59a4.496 4.496 0 1 0 0 8.992 4.496 4.496 0 0 0 0-8.992" clip-rule="evenodd"/><path fill="#fff" fill-rule="evenodd" d="m596.892 305.889.025.022c.422.373.684.719.92 1.231.231.562.297 1.016.27 1.619-.038.319-.339 1.787-.763 1.814-.151-.102-.203-1.431-.265-1.758a2.95 2.95 0 0 0-.398-1.08 3.2 3.2 0 0 0-.675-.761c-.002-.004-.014-.014-.017-.017-.742-.597-1.023-.551-.659-1.19.354-.818.813-.446 1.562.12" clip-rule="evenodd"/><path fill="#99fff0" fill-rule="evenodd" d="M867.068 281.5a6.069 6.069 0 1 0 .002 12.136 6.069 6.069 0 0 0-.002-12.136" clip-rule="evenodd"/><path fill="#fff" fill-rule="evenodd" d="M870.431 283.255c.01.008.025.023.034.029.568.502.922.971 1.241 1.663.311.756.4 1.371.364 2.186-.052.429-.457 2.411-1.03 2.445-.205-.136-.273-1.93-.357-2.373-.104-.56-.241-.969-.536-1.456a4.3 4.3 0 0 0-.934-1.049c-1-.807-1.381-.745-.889-1.608.476-1.104 1.094-.601 2.107.163" clip-rule="evenodd"/><path fill="#99fff0" fill-rule="evenodd" d="M883.402 296.09a4.496 4.496 0 1 0 0 8.992 4.496 4.496 0 0 0 0-8.992" clip-rule="evenodd"/><path fill="#fff" fill-rule="evenodd" d="m885.892 297.389.025.022c.422.373.684.719.92 1.231.231.562.297 1.016.27 1.619-.038.319-.339 1.787-.763 1.814-.151-.102-.203-1.431-.265-1.758a2.95 2.95 0 0 0-.398-1.08 3.2 3.2 0 0 0-.675-.761c-.002-.004-.014-.014-.017-.017-.742-.597-1.023-.551-.659-1.19.354-.818.813-.446 1.562.12" clip-rule="evenodd"/><path fill="#99fff0" fill-rule="evenodd" d="M542.499 585.568c-6.352 0-11.499 5.149-11.499 11.498 0 6.354 5.149 11.502 11.499 11.502 6.352 0 11.501-5.15 11.501-11.502.002-6.349-5.149-11.498-11.501-11.498" clip-rule="evenodd"/><path fill="#fff" fill-rule="evenodd" d="M548.872 588.894c.019.015.047.044.064.055 1.077.951 1.748 1.84 2.352 3.151.589 1.433.758 2.599.69 4.143-.099.813-.866 4.569-1.952 4.633-.389-.257-.517-3.657-.677-4.497-.197-1.061-.456-1.836-1.015-2.759-.514-.805-1.007-1.33-1.725-1.95-.005-.007-.038-.032-.045-.038-1.895-1.529-2.617-1.411-1.685-3.047.902-2.092 2.073-1.139 3.993.309" clip-rule="evenodd"/><path fill="#99fff0" fill-rule="evenodd" d="M574.499 426c-6.352 0-11.499 5.149-11.499 11.497 0 6.354 5.149 11.503 11.499 11.503 6.352 0 11.501-5.151 11.501-11.503.002-6.348-5.149-11.497-11.501-11.497" clip-rule="evenodd"/><path fill="#fff" fill-rule="evenodd" d="M580.872 429.326c.019.015.047.043.064.055 1.077.951 1.748 1.84 2.352 3.151.589 1.433.758 2.598.69 4.143-.099.812-.866 4.568-1.952 4.633-.389-.258-.517-3.658-.677-4.497-.197-1.061-.456-1.836-1.015-2.759-.514-.806-1.007-1.331-1.725-1.95-.005-.008-.038-.032-.045-.038-1.895-1.529-2.617-1.412-1.685-3.047.902-2.092 2.073-1.139 3.993.309" clip-rule="evenodd"/><path fill="#99fff0" fill-rule="evenodd" d="M1039.5 87.5c-6.35 0-11.5 5.149-11.5 11.497 0 6.354 5.15 11.503 11.5 11.503s11.5-5.15 11.5-11.503c0-6.348-5.15-11.497-11.5-11.497" clip-rule="evenodd"/><path fill="#fff" fill-rule="evenodd" d="M961.872 154.326c.019.015.047.044.064.055 1.077.951 1.748 1.84 2.352 3.151.59 1.433.758 2.598.69 4.143-.099.813-.866 4.569-1.952 4.633-.388-.257-.517-3.657-.676-4.497-.198-1.061-.457-1.836-1.016-2.759-.514-.805-1.006-1.33-1.725-1.95-.005-.007-.038-.032-.045-.038-1.895-1.529-2.617-1.412-1.685-3.047.902-2.092 2.073-1.139 3.993.309" clip-rule="evenodd"/><path fill="#4ef6dd" fill-opacity=".7" d="M339.179 696.834a6.13 6.13 0 0 1-4.46-5.115c-.524-4.06-1.355-11.043-2.294-19.116l87.587-9.555c-2.027 2.309-1.692 3.209-3.928 4.535 9.35 3.442 17.386 11.007 23.524 22.022 1.658 2.969.084 6.673-3.193 7.733-27.394 8.87-80.245 4.221-97.236-.504"/><path fill="url(#e)" fill-opacity=".6" d="M169.309 701.144c-.88-8.318 1.665-19.055 7.155-28.925l74.318-3.124c-1.13 2.487-1.114 2.189-2.532 4.736.833 5.467 1.866 10.913 1.253 24.272a10.76 10.76 0 0 1-2.006 5.798c-5.696 7.851-17.481 10.656-25.496 5.365-2.425 1.788-15.896 6.408-25.284-.522-2.052.339-11.425 4.708-23.877-2.255a6.97 6.97 0 0 1-3.531-5.345"/><path fill="url(#f)" fill-opacity=".6" d="M169.309 701.144c-.88-8.318 1.665-19.055 7.155-28.925l74.318-3.124c-1.13 2.487-1.114 2.189-2.532 4.736.833 5.467 1.866 10.913 1.253 24.272a10.76 10.76 0 0 1-2.006 5.798c-5.696 7.851-17.481 10.656-25.496 5.365-2.425 1.788-15.896 6.408-25.284-.522-2.052.339-11.425 4.708-23.877-2.255a6.97 6.97 0 0 1-3.531-5.345"/><path fill="#bffbff" fill-opacity=".4" d="m410.784 702.718.082-.011c3.621-.513 5.748-1.798 9.123-3.216 2.735-1.149 5.033-2.912 7.708-4.134 4.342-1.984 6.49-3.623 8.53-8.176.758-1.692 1.302-3.585.871-5.385l-.052-.205c-.516-1.838-1.938-3.356-2.348-5.225-.17-.778-.156-1.586-.318-2.365-.626-3.004-3.459-4.478-4.876-6.991-1.525-2.706-2.085-4.592-4.996-6.439-7.04-4.468-14.336-4.091-22.223-2.385-9.128 1.973-17.837 5.621-27.013 7.363-8.975 1.705-19.323 3.196-28.417 1.873-2.132-.311-3.774-1.083-5.955-.496-4.156 1.12-17.932 5.505-13.737 12.542.486.816 1.259 1.413 1.907 2.109a8.63 8.63 0 0 1 2.301 5.69c.03 1.948-.606 3.877-.446 5.819.185 2.245 1.504 4.368 3.44 5.54 3.306 2.002 7.433 1.275 11.047 2.187 3.489.881 7.04 1.547 10.542 2.465 4.97 1.303 9.632 3.577 14.629 4.785 5.967 1.442 13.782 1.515 19.922 1.193 6.329-.334 11.356-3.358 17.165-5.59 1.016-.39 2.04-.783 3.114-.948M234.172 709.766l.075-.005c3.351-.23 5.385-1.271 8.571-2.351 2.582-.875 4.804-2.345 7.336-3.291 4.109-1.536 6.186-2.902 8.36-6.958.808-1.507 1.433-3.213 1.16-4.899l-.035-.193c-.348-1.725-1.549-3.218-1.799-4.967-.103-.727-.036-1.47-.133-2.198-.371-2.807-2.867-4.354-3.995-6.762-1.215-2.593-1.602-4.367-4.142-6.261-6.148-4.584-12.854-4.724-20.191-3.68-8.492 1.207-16.712 3.984-25.232 4.975-8.333.97-17.91 1.651-26.149-.174-1.931-.428-3.383-1.249-5.42-.854-3.88.753-16.79 3.871-13.422 10.629.391.783 1.059 1.385 1.606 2.069a8 8 0 0 1 1.725 5.392c-.104 1.796-.815 3.529-.799 5.327.018 2.079 1.083 4.122 2.778 5.33 2.893 2.064 6.72 1.671 9.969 2.752 3.136 1.043 6.343 1.894 9.488 2.973 4.464 1.532 8.581 3.936 13.075 5.382 5.368 1.726 12.52 2.316 18.164 2.429 5.818.115 10.625-2.333 16.094-4 .957-.292 1.921-.585 2.916-.665"/><path fill="#eefeff" d="M255.671 674.135a11 11 0 0 1-.625 1.763c-1.664 3.739-3.416 5.087-6.957 6.716-2.182 1.003-4.056 2.451-6.287 3.395-2.752 1.165-4.487 2.22-7.441 2.641l-.067.008c-.876.136-1.711.458-2.54.779-4.738 1.833-8.838 4.316-14 4.591-5.008.265-11.382.204-16.249-.98-4.075-.992-7.878-2.859-11.932-3.93-2.856-.753-5.752-1.301-8.598-2.024-2.948-.749-6.313-.152-9.009-1.796a5.99 5.99 0 0 1-2.807-4.55c-.117-1.436.29-2.864.355-4.302 2.576 1.16 5.474 1.253 8.32 1.541 1.141.126 2.28.268 3.377.551 5.164 1.302 9.371 5.176 14.479 6.718 2.518.763 5.164.933 7.739 1.443 6.612 1.287 12.733 4.908 19.515 2.602 1.816-.607 3.519-1.528 5.348-2.122 3.925-1.287 8.216-1.004 12.128-2.319a21 21 0 0 0 4.095-1.881c.042-.013.085-.042.127-.07.984-.593 1.884-1.259 2.757-1.952 1.759-1.4 3.434-2.971 5.431-4.597.492-.397.986-.792 1.478-1.174q.68-.526 1.363-1.051M234.497 709.931c-4.644 2.014-9.234 3.84-14.493 4.262 2.177-.883 4.302-1.916 6.545-2.644 2.578-.845 5.255-1.268 7.948-1.618m-47.171 1.016c2.814.599 5.576 1.437 8.32 2.268a47 47 0 0 1-2.589-.549c-1.942-.472-3.845-1.07-5.731-1.719M142 696.436c1.087.101 2.177.195 3.263.305 1.837.204 3.673.431 5.441.887 5.002 1.261 9.447 4.019 13.984 6.559a183 183 0 0 1-4.705-1.112c-4.748-1.206-10.17-.245-14.513-2.894-1.473-.897-2.673-2.217-3.47-3.745m138.344-14.357c-.245 1.015-.614 2.011-1.036 2.959-2.681 6.025-5.504 8.194-11.208 10.818-3.514 1.616-6.534 3.949-10.127 5.47a71 71 0 0 0-.868.373q.112-.087.223-.173c2.834-2.257 5.533-4.786 8.75-7.406.793-.64 1.588-1.276 2.38-1.892 1.882-1.457 3.788-2.893 5.645-4.398 2.209-1.797 4.339-3.675 6.241-5.751M435.46 663.048c.241.479.454.968.597 1.482q.03.106.055.212c.442 1.862-.117 3.819-.896 5.568-2.095 4.709-4.301 6.405-8.759 8.456-2.747 1.263-5.107 3.086-7.915 4.274-3.466 1.466-5.651 2.795-9.37 3.325l-.084.012c-1.102.171-2.153.577-3.197.98-5.965 2.309-11.128 5.435-17.627 5.781-6.305.333-14.331.256-20.459-1.235-3.308-.805-6.473-2.067-9.672-3.224q.657.109 1.31.237c8.326 1.62 16.032 6.179 24.572 3.275 2.286-.764 4.43-1.923 6.733-2.671 4.941-1.62 10.345-1.264 15.27-2.921a26.4 26.4 0 0 0 5.155-2.367c.053-.016.107-.054.16-.089 1.238-.747 2.373-1.584 3.471-2.457 2.215-1.763 4.324-3.74 6.839-5.788.62-.499 1.241-.998 1.86-1.479 1.471-1.139 2.961-2.261 4.412-3.437 2.865-2.331 5.563-4.829 7.545-7.934m-108.075 14.918c1.38.155 2.758.332 4.085.675 4.821 1.215 8.98 4.21 13.429 6.469-.984-.225-1.966-.455-2.942-.703-3.712-.943-7.95-.191-11.344-2.262-1.538-.937-2.694-2.463-3.228-4.179M417.265 706.562c-8.37 3.35-15.755 7.633-24.963 8.122-3.094.164-6.469.257-9.927.231a26.1 26.1 0 0 0 7.395-1.367c3.366-1.125 6.522-2.831 9.911-3.931 5.667-1.858 11.747-1.952 17.584-3.055m-70.88 1.003c2.405.373 4.824.689 7.209 1.162 8.597 1.673 16.745 5.473 25.182 6.119-5.785-.191-11.615-.767-16.595-1.978-5.406-1.317-10.553-3.462-15.796-5.303m116.557-33.415c.192 2.348-.545 4.748-1.515 6.928-3.085 6.932-6.333 9.427-12.897 12.447-4.044 1.86-7.518 4.544-11.653 6.294-4.694 1.986-7.791 3.798-12.519 4.683a38.6 38.6 0 0 0 5.395-2.672c.078-.024.156-.078.234-.129 1.824-1.101 3.495-2.334 5.111-3.619 3.261-2.596 6.366-5.506 10.068-8.521.912-.736 1.827-1.468 2.739-2.177 2.166-1.677 4.359-3.329 6.495-5.059 3.084-2.51 6.036-5.151 8.542-8.175m-160.301 18.099c1.17.108 2.342.209 3.51.328 2.115.235 4.227.497 6.261 1.022 7.914 1.994 14.615 7.247 22.05 10.623-3.454-.788-6.914-1.521-10.335-2.391-5.464-1.387-11.703-.282-16.7-3.33-2.294-1.397-4.014-3.684-4.786-6.252"/><defs><linearGradient id="a" x1="739" x2="1183" y1="229" y2="800.5" gradientUnits="userSpaceOnUse"><stop stop-color="#34e2d9"/><stop offset=".547"/></linearGradient><linearGradient id="c" x1="178.5" x2="765.5" y1="-162" y2="722" gradientUnits="userSpaceOnUse"><stop stop-color="#f0bf6c"/><stop offset="1" stop-color="#fff"/></linearGradient><linearGradient id="e" x1="209.96" x2="209.96" y1="669.095" y2="712.437" gradientUnits="userSpaceOnUse"><stop stop-color="#4ef6dd" stop-opacity="0"/><stop offset="1" stop-color="#4ef6dd"/></linearGradient><linearGradient id="f" x1="209.96" x2="209.96" y1="669.095" y2="712.437" gradientUnits="userSpaceOnUse"><stop stop-color="#4ef6dd" stop-opacity="0"/><stop offset="1" stop-color="#4ef6dd"/></linearGradient></defs></svg>