<svg xmlns="http://www.w3.org/2000/svg" width="553" height="500" fill="none" viewBox="0 0 553 500"><path fill="url(#a)" fill-opacity=".4" d="m492.5 393 60.499 39.999L244.346 610.64 213.5 555z" transform="translate(0 -140)"/><path fill="#009b7d" d="M87.194 107.03C4.618 209.643-23.681 339.75 23.994 407.501c5.978 8.495 12.867 15.48 20.506 20.999l74 50.5c53.481 36.611 142.682 1.812 214.147-86.993 82.576-102.613 110.869-240.72 63.193-308.47-6.447-9.162-13.952-16.567-22.317-22.271l-72.02-39.089c-53.409-37.342-142.549-4.319-214.31 84.853"/><path fill="url(#b)" d="M155.225 306.482c-58.44 72.537-78.462 170.164-44.722 218.057 4.23 6.005 9.105 10.943 14.511 14.844l30.679 17.239c37.848 25.88 100.621 2.47 151.196-60.306 58.439-72.537 78.462-170.165 44.722-218.057-4.562-6.476-9.874-11.711-15.794-15.743L306.889 246.5c-37.797-26.397-100.88-3.053-151.664 59.982" transform="translate(0 -140)"/><path fill="#76eaff" d="M236.775 323.518c58.439-72.537 78.462-170.164 44.722-218.057-4.562-6.476-9.874-11.711-15.794-15.743-49.815 31.31-155.581 133.965-180.124 294.106 37.848 25.88 100.621 2.47 151.196-60.306"/><path fill="#00bf9a" d="M159.632 146.603c-19.698 24.505-36.964 51.956-50.81 80.788s-24.004 58.477-29.89 87.245c-5.888 28.769-7.39 56.096-4.42 80.421 2.968 24.326 10.35 45.174 21.722 61.353s26.514 27.374 44.56 32.944c18.045 5.571 38.641 5.408 60.612-.479 21.97-5.887 44.885-17.383 67.436-33.831s44.297-37.526 63.995-62.031l-25.981-36.962c-13.789 17.154-29.01 31.908-44.796 43.422s-31.826 19.561-47.206 23.682c-15.379 4.12-29.796 4.235-42.428.335-12.632-3.899-23.231-11.735-31.192-23.061-7.961-11.325-13.128-25.919-15.206-42.947-2.078-17.027-1.027-36.156 3.094-56.294s11.231-40.89 20.923-61.072c9.693-20.182 21.779-39.398 35.568-56.552z"/><path fill="#00e9bc" d="M332.837 393.013c31.677-39.407 56.751-86.039 71.628-133.213s18.794-92.467 11.19-129.389l-50.827 41.819c5.324 25.845 2.582 57.551-7.832 90.573s-27.966 65.664-50.14 93.248z"/><path fill="#31ffd7" d="M415.62 130.242c-7.64-36.894-26.407-63.51-53.613-76.034-27.206-12.523-61.454-10.312-97.834 6.318l-5.382 62.785c25.467-11.641 49.44-13.19 68.484-4.423s32.181 27.398 37.529 53.223z"/><path fill="#78ffe5" d="M264.166 60.53c-18.078 8.264-36.339 19.934-54.114 34.58l10.855 52.409c12.442-10.252 25.225-18.421 37.879-24.206z"/><path fill="#cafff5" d="M210.051 95.111c-17.774 14.646-34.84 32.086-50.571 51.681l26.026 36.904c11.012-13.716 22.958-25.924 35.4-36.176z"/><defs><linearGradient id="a" x1="135" x2="499" y1="579" y2="395.5" gradientUnits="userSpaceOnUse"><stop offset=".301" stop-color="#005666"/><stop offset="1" stop-color="#0090ab" stop-opacity="0"/></linearGradient><linearGradient id="b" x1="368.001" x2="144.501" y1="264" y2="567" gradientUnits="userSpaceOnUse"><stop stop-color="#006e58"/><stop offset=".528" stop-color="#00a283"/><stop offset="1" stop-color="#006e58"/></linearGradient></defs></svg>